<svg xmlns="http://www.w3.org/2000/svg" xmlns:xlink="http://www.w3.org/1999/xlink" width="190" height="266.346" viewBox="0 0 190 266.346"><defs><clipPath id="a"><rect width="173.101" height="250.43" fill="none"/></clipPath><clipPath id="c"><path d="M90.22,162.21c-.907.435-1.066,1.655-.969,2.658a4.358,4.358,0,0,1-.277,2.936l-11.23,6.4s-.966-.663-3.954-.2-1.161,3.427-1.161,3.427l27.312-.614A73.431,73.431,0,0,0,98.9,165.2a1.1,1.1,0,0,0-.923-1.164L92.21,162.3a4.55,4.55,0,0,0-1.273-.245,1.647,1.647,0,0,0-.718.15" transform="translate(-72.076 -162.06)" fill="none"/></clipPath><clipPath id="e"><path d="M124.537,162.507l-5.978.732a2.808,2.808,0,0,0-1.86.714c-.656.761-.311,1.943.18,2.822a4.368,4.368,0,0,1,.926,2.8l-7.712,10.373s-1.152-.219-3.7,1.4.312,3.606.312,3.606l24.767-11.533a73.424,73.424,0,0,0-5.619-10.224,1.468,1.468,0,0,0-.743-.689.909.909,0,0,0-.252-.032,2.792,2.792,0,0,0-.321.025" transform="translate(-105.334 -162.482)" fill="none"/></clipPath><clipPath id="g"><path d="M44.03,167.94c-1.295,2.53-.36,7.553.3,10.316.058.241,13.931-3.835,20.344-5.913.157-.05.332-.122.38-.278a.5.5,0,0,0-.077-.363,5.93,5.93,0,0,0-4.24-3.074c-1.822-.3-3.993.172-5.282-1.149l-.962-2.211L44.03,167.94" transform="translate(-43.382 -165.268)" fill="none"/></clipPath><clipPath id="i"><path d="M2.615,176.135c-.019.246,14.436.608,21.176.592a.525.525,0,0,0,.447-.149.5.5,0,0,0,.037-.369,5.934,5.934,0,0,0-3.1-4.225c-1.641-.841-3.854-1.057-4.678-2.708l-.239-2.4L5.48,166.22c-2,2.013-2.654,7.08-2.865,9.915" transform="translate(-2.615 -166.22)" fill="none"/></clipPath><clipPath id="k"><rect width="6.952" height="5.286" fill="none"/></clipPath><clipPath id="l"><rect width="7.855" height="5.043" fill="none"/></clipPath></defs><g transform="translate(-1020 -5419.259)"><g transform="translate(1000 5419.259)"><rect width="190" height="257" transform="translate(20 9.346)" fill="none"/><g transform="translate(36.899)"><g clip-path="url(#a)"><g clip-path="url(#a)"><path d="M84.991,159.22q.246,4.978.49,9.956a1.912,1.912,0,0,0,.255,1.042,1.821,1.821,0,0,0,.9.566,20.073,20.073,0,0,0,7.3,1.245l1.143-19.61Z" transform="translate(31.945 57.289)" fill="#7d8acc"/><path d="M88.974,167.8a4.37,4.37,0,0,0,.277-2.937c-.1-1,.062-2.222.97-2.657a2.806,2.806,0,0,1,1.988.094l5.769,1.734A1.1,1.1,0,0,1,98.9,165.2a73.093,73.093,0,0,1,1.039,11.619l-27.312.614s-1.827-2.962,1.161-3.427,3.954.2,3.954.2Z" transform="translate(27.091 60.913)" fill="#efa02a"/><path d="M72.379,173.4l.088,4.766,27.506-.51-.089-4.872-27.643.512Z" transform="translate(27.153 64.943)" fill="#3b4a56"/></g><g transform="translate(99.167 222.973)"><g clip-path="url(#c)"><path d="M95.276,166.242a21.257,21.257,0,0,0-5.2-1.925c.089-.122.177-.246.267-.369.19.633.4,1.264.564,1.9a4.219,4.219,0,0,1,.139,1.823,2.3,2.3,0,0,1-.852,1.467,3.092,3.092,0,0,1-1.486.487,10.642,10.642,0,0,0-1.559.227,6.824,6.824,0,0,0-1.34.534,29.156,29.156,0,0,0-2.617,1.643,10.081,10.081,0,0,1-3.1,1.48c-.33.08-.413-.442-.084-.52,1.9-.46,3.4-1.831,5.052-2.792a7.36,7.36,0,0,1,2.664-1c.97-.135,2.182-.052,2.651-1.112a2.979,2.979,0,0,0,.083-1.862c-.153-.7-.389-1.384-.6-2.069-.05-.164.05-.418.267-.369a21.783,21.783,0,0,1,5.337,1.958c.3.155.11.649-.19.491" transform="translate(-69.173 -161.411)" fill="#fff"/><path d="M81.329,170.065a2.294,2.294,0,0,0-1.39-1.61.263.263,0,0,1,.19-.491,2.831,2.831,0,0,1,1.72,2.017.263.263,0,0,1-.52.084" transform="translate(-69.182 -159.848)" fill="#fff"/><path d="M82.611,169.2a2.78,2.78,0,0,0-1.468-1.651.269.269,0,0,1-.15-.341.266.266,0,0,1,.34-.151,3.291,3.291,0,0,1,1.76,1.93.271.271,0,0,1-.133.348.267.267,0,0,1-.348-.135" transform="translate(-68.731 -160.188)" fill="#fff"/><path d="M84,168.495a6.551,6.551,0,0,0-1.557-1.921.27.27,0,0,1-.055-.369.267.267,0,0,1,.369-.055,7.243,7.243,0,0,1,1.725,2.131.265.265,0,0,1-.133.347.269.269,0,0,1-.348-.133" transform="translate(-68.22 -160.542)" fill="#fff"/><path d="M75.522,173.122a2.938,2.938,0,0,0,.023-1.789.263.263,0,0,1,.217-.3.27.27,0,0,1,.3.217,3.416,3.416,0,0,1-.052,2.062.266.266,0,0,1-.34.151.27.27,0,0,1-.151-.341" transform="translate(-70.787 -158.689)" fill="#fff"/><path d="M89.806,174.8a6.093,6.093,0,0,1,1.179-4.078,10.818,10.818,0,0,1,3.37-2.948c.753-.457,1.534-.863,2.316-1.269.3-.155.513.327.213.483-2.464,1.275-5.2,2.726-6.238,5.477a4.95,4.95,0,0,0-.319,2.251c.034.336-.486.421-.52.084" transform="translate(-65.422 -160.4)" fill="#fff"/></g></g><g clip-path="url(#a)"><path d="M111.44,162.484l4.268,8.155a2.049,2.049,0,0,0,.8.973,1.8,1.8,0,0,0,1.043.065,14.337,14.337,0,0,0,5.876-2.309q-2.243-8.449-4.484-16.9a13.441,13.441,0,0,1-7.245,3.43Z" transform="translate(41.887 57.308)" fill="#7d8acc"/><path d="M117.8,169.576a4.371,4.371,0,0,0-.926-2.8c-.491-.878-.837-2.06-.18-2.822a2.8,2.8,0,0,1,1.86-.714l5.978-.731a1.1,1.1,0,0,1,1.315.7,73.4,73.4,0,0,1,5.618,10.223L106.7,184.961s-2.862-1.98-.311-3.606,3.7-1.406,3.7-1.406Z" transform="translate(39.592 61.072)" fill="#efa02a"/><path d="M106.249,182.042l2,4.328,24.986-11.515-2.04-4.426L106.081,182Z" transform="translate(39.872 64.059)" fill="#3b4a56"/></g><g transform="translate(144.926 223.554)"><g clip-path="url(#e)"><path d="M123.367,164.5a21.277,21.277,0,0,0-5.535.326c.033-.149.065-.3.1-.446.429.5.872,1,1.282,1.519a4.2,4.2,0,0,1,.86,1.613,2.3,2.3,0,0,1-.191,1.685,3.07,3.07,0,0,1-1.165,1.042,10.866,10.866,0,0,0-1.336.835,6.8,6.8,0,0,0-1.013,1.026,29.119,29.119,0,0,0-1.738,2.558,10.091,10.091,0,0,1-2.245,2.6c-.27.205-.554-.239-.286-.443,1.555-1.183,2.377-3.042,3.507-4.586a7.36,7.36,0,0,1,2.038-1.984c.835-.513,1.977-.923,1.981-2.082a2.967,2.967,0,0,0-.671-1.738c-.421-.579-.914-1.112-1.377-1.657-.111-.129-.122-.4.1-.444a21.8,21.8,0,0,1,5.674-.352c.334.025.362.55.023.527" transform="translate(-102.834 -161.941)" fill="#fff"/><path d="M113.138,172.4a2.29,2.29,0,0,0-1.919-.915.264.264,0,0,1-.023-.527,2.836,2.836,0,0,1,2.386,1.156.264.264,0,1,1-.443.286" transform="translate(-103.223 -159.299)" fill="#fff"/><path d="M113.968,171.092a2.781,2.781,0,0,0-2.007-.923.27.27,0,0,1-.275-.252.266.266,0,0,1,.252-.274,3.29,3.29,0,0,1,2.386,1.059.27.27,0,0,1,.017.373.264.264,0,0,1-.371.017" transform="translate(-102.948 -159.79)" fill="#fff"/><path d="M114.953,169.886a6.552,6.552,0,0,0-2.2-1.134.269.269,0,0,1-.2-.315.264.264,0,0,1,.315-.2,7.229,7.229,0,0,1,2.435,1.258.265.265,0,0,1,.017.373.268.268,0,0,1-.371.017" transform="translate(-102.622 -160.321)" fill="#fff"/><path d="M109.042,177.532a2.922,2.922,0,0,0-.7-1.647.265.265,0,0,1,.078-.365.271.271,0,0,1,.365.078,3.414,3.414,0,0,1,.781,1.91.264.264,0,1,1-.527.023" transform="translate(-104.22 -157.597)" fill="#fff"/><path d="M122.1,174.069a6.1,6.1,0,0,1-.559-4.207,10.826,10.826,0,0,1,1.9-4.055c.506-.72,1.058-1.406,1.611-2.091.213-.264.6.092.389.356-1.743,2.157-3.663,4.583-3.513,7.522a4.924,4.924,0,0,0,.612,2.189c.166.294-.277.582-.443.286" transform="translate(-99.296 -162.053)" fill="#fff"/></g></g><g clip-path="url(#a)"><path d="M85.738,51.06c3.153-3.429,3.059-8.642,2.777-13.291-.022-.363-.044-.728-.074-1.091a.523.523,0,0,0-1.028-.087c-.45,1.79-.443,4.048-.724,5.572.424-3.657-.817-8.877-1.665-12.458l0-.014a.507.507,0,0,0-.995.043,32.6,32.6,0,0,0,.2,8.416c-.2-2.4-.607-6.368-1.644-8.506a.511.511,0,0,0-.966.183,28.248,28.248,0,0,0,.692,7.986c-.272-1.552-.158-5.151-.4-6.93a.51.51,0,0,0-1-.061c-.515,1.908-1.1,4.18-.553,5.662A17.2,17.2,0,0,0,78.9,33.328a.511.511,0,0,0-.938.14,7.133,7.133,0,0,0,.113,2.693q1.176,6.625,2.355,13.25a8.621,8.621,0,0,0,.889,2.926c.886,1.5,2.565,2.314,4.148,3.042a.522.522,0,0,0,.831-.216l1.592-2.571a7.219,7.219,0,0,0,1.227-2.822,2.464,2.464,0,0,0-1.262-2.6Z" transform="translate(29.268 11.014)" fill="#e5a67c"/><path d="M79.039,85.985c-1.41,11.372-12.969,43.973-12.079,49.226a53.528,53.528,0,0,0,2.475,8.657c3.81,10.905,10.052,39.992,14.206,50.77,3.162-1.047,21.821-3.357,25.1-3.956,0,0-12.917-39.573-15.254-51.219A9.58,9.58,0,0,1,93.2,136.6a9.45,9.45,0,0,1,.587-2.171q4.223-11.793,8.444-23.584Z" transform="translate(25.15 32.319)" fill="#212f56"/><path d="M115.546,87.223a25.919,25.919,0,0,1,1.57,15.4,57.867,57.867,0,0,0-1.449,6.839c-.2,2.354,21.239,76.478,23.558,81.344-3.663,1.029-15.395,4.4-19.057,5.431a1.517,1.517,0,0,1-2.116-.81c-11.257-17.142-19.086-52.987-25.927-72.32-.871-2.461-18.3-35.02-17.368-40.872,10.7,2.018,23.5,4.533,34.347,3.693Z" transform="translate(28.085 30.908)" fill="#7d8acc"/><path d="M121.358,33.716a3.249,3.249,0,0,1,3.316,1.441,43.027,43.027,0,0,1,4.945,35.574c-1.963,6.322-5.374,12.083-8.88,17.7a21.976,21.976,0,0,0-2.57,5.005,19.262,19.262,0,0,0-.5,6.877,36.476,36.476,0,0,0,.532,5.743,38.292,38.292,0,0,1-9.111,2.229c-13.766,2.02-22.966-.871-36.659-3.341C75.7,84.754,74.7,70.2,84.29,52.14c2.955-5.565,6.644-11,12.007-14.309,7.314-4.514,16.469-4.386,25.06-4.115" transform="translate(27.226 12.631)" fill="#d15259"/><path d="M52.992,155.014q.093,2.186.184,4.37a1.1,1.1,0,0,0,.285.842c.259.206.638.136.948.25a1.138,1.138,0,0,1,.493,1.491,3.31,3.31,0,0,1-1.179,1.27,1.424,1.424,0,0,1,.742,2.7A.98.98,0,0,1,55,167.823a8.477,8.477,0,0,1,.132,2.794,1.25,1.25,0,0,1-.267.735,1.35,1.35,0,0,1-.641.308L46.5,173.789Q45.185,171,43.87,168.217a.959.959,0,0,1-1.442-1.211c.139-.25.392-.449.432-.732.088-.614-.781-.839-1.4-.812q.128-.733.257-1.465a2.345,2.345,0,0,1-1.117-2.92q6.156-2.737,12.084-5.948Z" transform="translate(15.2 58.265)" fill="#efa02a"/><path d="M54.5,165.268Q49.263,166.6,44.03,167.94c-1.295,2.53-.362,7.553.3,10.316.058.239,13.931-3.836,20.344-5.913.155-.051.332-.122.38-.278a.5.5,0,0,0-.077-.363,5.938,5.938,0,0,0-4.24-3.075c-1.822-.3-3.993.172-5.283-1.147Z" transform="translate(16.306 62.119)" fill="#7d8acc"/></g><g transform="translate(59.688 227.387)"><g clip-path="url(#g)"><path d="M41.484,176.811q5.335-1.416,10.633-2.962t10.556-3.226q2.951-.941,5.89-1.925c.289-.1.193-.565-.1-.468q-5.236,1.75-10.51,3.372t-10.59,3.109q-2.982.838-5.98,1.632c-.294.078-.2.548.1.468" transform="translate(-44.2 -164.16)" fill="#fff"/><path d="M55.719,166.933a5.029,5.029,0,0,0-.64,4.809c.113.288.539.07.428-.215a4.541,4.541,0,0,1,.611-4.328c.186-.248-.215-.51-.4-.266" transform="translate(-39.113 -164.679)" fill="#fff"/><path d="M42.593,171.431a6.252,6.252,0,0,1,5.648,1.944c.206.228.565-.088.359-.318a6.746,6.746,0,0,0-6.107-2.094c-.3.054-.2.521.1.468" transform="translate(-43.785 -163.164)" fill="#fff"/><path d="M52.857,170.828a5.427,5.427,0,0,1,1.64-4.661c.226-.212-.091-.57-.316-.359a5.924,5.924,0,0,0-1.791,5.121c.043.305.512.2.468-.1" transform="translate(-40.018 -165.089)" fill="#fff"/><path d="M52.04,170.782a8.136,8.136,0,0,1,1.676-4.923c.188-.245-.212-.508-.4-.264a8.582,8.582,0,0,0-1.756,5.164c0,.307.477.333.479.023" transform="translate(-40.307 -165.182)" fill="#fff"/><path d="M43.2,168.288a3.265,3.265,0,0,0,2.353,2.039,3.132,3.132,0,0,0,2.953-.959,3.234,3.234,0,0,0,.823-1.651l-.473.039a1.872,1.872,0,0,0,1.069,1.317,2.456,2.456,0,0,0,1.859.05,4.591,4.591,0,0,0,2.69-2.753,4.8,4.8,0,0,0,.275-2.189c-.032-.305-.5-.2-.468.1a4.393,4.393,0,0,1-.945,3.141,3.072,3.072,0,0,1-2.9,1.33,1.465,1.465,0,0,1-1.11-1.1c-.054-.289-.429-.212-.473.039a2.7,2.7,0,0,1-5.221.378c-.1-.29-.53-.072-.428.216" transform="translate(-43.455 -165.747)" fill="#fff"/></g></g><g clip-path="url(#a)"><path d="M64.359,169.3a7.791,7.791,0,0,1,1.589,3.209c-4.335,1.339-13.622,4.576-13.872,4.349-.131-.118-2.233-1.423-2.43-1.169s-.428,2.189-.754,2.234c-1.355.19-2.474,1.091-3.829,1.281l-1.329-3.577Z" transform="translate(16.439 63.633)" fill="#d15259"/><path d="M51.163,159.061a41.117,41.117,0,0,0-7.76,3.379.251.251,0,0,0,.253.433,40.469,40.469,0,0,1,7.64-3.33c.307-.1.176-.581-.133-.483" transform="translate(16.268 59.781)" fill="#b5731c"/><path d="M50.892,160.483a37.3,37.3,0,0,0-7.093,3.074.251.251,0,0,0,.253.432,36.677,36.677,0,0,1,6.973-3.021c.307-.1.176-.582-.133-.484" transform="translate(16.417 60.315)" fill="#b5731c"/><path d="M50.56,162.824a7.185,7.185,0,0,0-4.229,1.527c-.255.2.1.55.355.354a6.62,6.62,0,0,1,3.874-1.38.251.251,0,0,0,0-.5" transform="translate(17.381 61.2)" fill="#b5731c"/><path d="M19.033,156.426c-.677,1.292-.161,3.313-.838,4.605a1.089,1.089,0,0,0-.175.871c.12.308.483.438.693.692a1.135,1.135,0,0,1-.322,1.537,3.284,3.284,0,0,1-1.655.508,1.424,1.424,0,0,1-.711,2.708.981.981,0,0,1-.484,1.9,8.493,8.493,0,0,1-1.288,2.485,1.251,1.251,0,0,1-.6.5,1.349,1.349,0,0,1-.71-.054Q9.071,171.162,5.2,170.15l.52-6.141a.959.959,0,0,1-.643-1.769c.246-.147.564-.193.742-.417.384-.488-.256-1.119-.806-1.406l.958-1.138a2.345,2.345,0,0,1,.5-3.086c4.465.477,8.014.158,12.5.286Z" transform="translate(1.734 58.708)" fill="#efa02a"/><path d="M16.261,166.876,5.48,166.22c-2.006,2.013-2.654,7.08-2.866,9.915-.019.246,14.436.608,21.177.59a.524.524,0,0,0,.447-.147.509.509,0,0,0,.037-.37,5.938,5.938,0,0,0-3.1-4.224c-1.643-.841-3.855-1.058-4.679-2.709Z" transform="translate(0.983 62.477)" fill="#7d8acc"/></g><g transform="translate(3.598 228.697)"><g clip-path="url(#i)"><path d="M.209,172.507q5.51.283,11.028.431t11.039.157q3.1.006,6.2-.032c.305,0,.355-.48.048-.476q-5.519.066-11.039,0t-11.033-.277q-3.1-.116-6.191-.275c-.305-.017-.356.46-.047.476" transform="translate(-3.598 -164.036)" fill="#fff"/><path d="M16.4,169.491a5.033,5.033,0,0,0-2.08,4.384c.019.308.493.231.473-.074a4.546,4.546,0,0,1,1.906-3.935c.252-.177-.048-.552-.3-.374" transform="translate(1.782 -165.008)" fill="#fff"/><path d="M2.237,169.813a6.253,6.253,0,0,1,4.784,3.577.239.239,0,0,0,.438-.191,6.743,6.743,0,0,0-5.173-3.862c-.305-.043-.354.435-.048.476" transform="translate(-2.834 -165.05)" fill="#fff"/><path d="M12.582,172.254a5.424,5.424,0,0,1,2.987-3.936c.279-.132.087-.571-.191-.439a5.923,5.923,0,0,0-3.272,4.327c-.052.3.424.351.476.048" transform="translate(0.951 -165.606)" fill="#fff"/><path d="M11.843,171.965a8.136,8.136,0,0,1,3.1-4.174c.253-.176-.047-.549-.3-.374a8.576,8.576,0,0,0-3.251,4.379c-.094.292.354.464.449.169" transform="translate(0.68 -165.787)" fill="#fff"/><path d="M4.1,166.1a3.266,3.266,0,0,0,1.618,2.661,3.135,3.135,0,0,0,3.1-.01,3.255,3.255,0,0,0,1.289-1.321l-.462-.109a1.874,1.874,0,0,0,.614,1.581,2.465,2.465,0,0,0,1.756.616,4.592,4.592,0,0,0,3.4-1.8,4.8,4.8,0,0,0,.931-2c.063-.3-.413-.348-.476-.048a4.393,4.393,0,0,1-1.86,2.7,3.073,3.073,0,0,1-3.17.38,1.465,1.465,0,0,1-.721-1.384c.037-.29-.344-.333-.462-.109a2.786,2.786,0,0,1-3.02,1.368,2.8,2.8,0,0,1-2.068-2.6c-.01-.308-.483-.23-.473.074" transform="translate(-2.056 -166.502)" fill="#fff"/></g></g><g clip-path="url(#a)"><path d="M24.112,172.83a7.786,7.786,0,0,1,.532,3.541c-4.538-.052-14.37.191-14.537-.1-.088-.153-1.691-2.038-1.956-1.856s-1.076,1.952-1.4,1.9c-1.348-.234-2.688.283-4.037.05l-.172-3.813Z" transform="translate(0.955 64.855)" fill="#d15259"/><path d="M16.533,160.309a92.973,92.973,0,0,1-10.015-.538c-.319-.036-.318.466,0,.5a92.615,92.615,0,0,0,10.015.539.251.251,0,0,0,0-.5" transform="translate(2.36 60.052)" fill="#b5731c"/><path d="M14.842,161.871a52.44,52.44,0,0,1-7.559-.539c-.316-.045-.453.438-.133.483a53.513,53.513,0,0,0,7.692.559.251.251,0,0,0,0-.5" transform="translate(2.619 60.638)" fill="#b5731c"/><path d="M14.254,164.295l-6.449-.9a.26.26,0,0,0-.308.175.252.252,0,0,0,.175.308l6.449.9a.261.261,0,0,0,.308-.176.252.252,0,0,0-.175-.308" transform="translate(2.815 61.414)" fill="#b5731c"/><path d="M13.254,164.949l-6.23-.721c-.319-.037-.316.465,0,.5q3.116.359,6.23.721c.321.036.318-.465,0-.5" transform="translate(2.551 61.728)" fill="#b5731c"/><path d="M52.625,54.681a93.034,93.034,0,0,1-9.048,37.17c-1.944,4.059-4.188,7.988-5.73,12.216a59.964,59.964,0,0,0-3.107,17.813c1.2.223,5.385.615,5.527-.5.956-7.519,1.439-17.683,4.893-24.43,2.47-4.827,5.542-9.355,7.57-14.382a71.058,71.058,0,0,0,3.3-11.841c1.253-5.885,2.4-12.047.817-17.852-1.241-4.556-4.063-8.492-6.831-12.317q.351,3.35.7,6.7Z" transform="translate(13.058 15.244)" fill="#7d8acc"/><path d="M12.468,99.972c-4.136,23.64-7.537,44.412-8.895,68.372-.471,8.294-.125,19.707-.26,28.013,4.445.374,11.684,1.024,16.143.951l2.34-5.849a53.338,53.338,0,0,0,3.813-20.194l2.567-11.33,4.851-34.142c1.78,6.45,4.313,14.29,6.092,20.741,4.429,16.052,7.225,35.807,15.684,50.15.176.3,13.92-3.819,17.989-4.477-5.114-10.091-4.415-23.21-7.45-34.106-6.629-23.8-15.04-47.97-14.7-70.881a263.231,263.231,0,0,0-29.827-6.859,105.388,105.388,0,0,1-7.659,17,5.018,5.018,0,0,0-.626,2.105c-.012.169-.033.338-.062.506" transform="translate(1.245 30.206)" fill="#a46717"/><path d="M44.421,66.144A127.535,127.535,0,0,0,61.265,53.583c1.574-1.39,2.28-1.471,3.008-3.44.92-2.486.308-5.267.692-7.889a.266.266,0,0,1,.462-.138,6.737,6.737,0,0,1,1.7,5.521.069.069,0,0,0,.12.058c.893-1.035,5.32-6.468,7.725-8.058a.74.74,0,0,1,1.1.853c-.951,2.81-4.784,7.349-4.685,7.45C71.305,48,76.817,43.612,79,42.573a.739.739,0,0,1,.973,1c-1.2,2.272-7.289,7.042-7.269,7,.149.026,7.714-4.027,8.335-2.966.783,1.333-7.391,6.083-7.371,6.058l5.322.969a1.016,1.016,0,0,1,.659,1.233c-.184.593-6.084.956-6.676,1.182-.728.278-1.136,1.059-1.8,1.465a8.485,8.485,0,0,1-2.4.594,7.7,7.7,0,0,0-3.442,2.51q-6.055,6.472-12.116,12.944c-1.8,1.922-3.715,3.92-6.227,4.711a2.316,2.316,0,0,1-1.8-.01,2.532,2.532,0,0,1-.981-1.394,18.819,18.819,0,0,1-.726-11.04Z" transform="translate(16.149 14.852)" fill="#ba704a"/><path d="M60.5,45.88a8.252,8.252,0,0,1,.711,3.807c-.017.323.484.322.5,0a8.794,8.794,0,0,0-.779-4.06c-.133-.293-.565-.039-.433.253" transform="translate(22.732 17.101)" fill="#844d2f"/><path d="M62.476,45.8l4,6.3c.172.272.605.021.432-.253l-3.994-6.3c-.173-.272-.607-.021-.433.253" transform="translate(23.468 17.075)" fill="#844d2f"/><path d="M51.738,17.74c-4.1.091-8.665,2.34-9.39,6.377-.392,2.189.421,4.495-.158,6.641-.677,2.511-3.1,4.173-5.557,5.023s-5.093,1.119-7.52,2.054c-3.9,1.507-7.27,5.385-6.639,9.521.3,1.933,1.419,3.737,1.318,5.691-.2,3.793-4.495,5.685-7.438,8.087-3.881,3.167-5.823,9.15-3.126,13.371,1.619,2.534,4.506,3.958,7.36,4.91,1.618.541,3.383,1.043,4.439,2.383a3.935,3.935,0,0,1-4.843,5.958c2.464,4.272,9.181,5.2,12.714,1.764,2.318-2.255,3.07-5.614,4.005-8.709s2.424-6.4,5.393-7.683c2.192-.947,4.714-.568,7.058-1.021a10.353,10.353,0,0,0,8.1-10.406,6.379,6.379,0,0,1,.132-2.869c1.066-2.521,4.968-1.574,7.326-2.964a5.234,5.234,0,0,0,2.269-4.451,15.8,15.8,0,0,0-1.044-5.089,6.07,6.07,0,0,1-.425-2.412c.132-1.362,1.138-2.448,1.966-3.537A17.314,17.314,0,0,0,67.061,19.3C66,18.057,64.266,16.9,62.849,17.711Z" transform="translate(4.501 6.556)" fill="#f2e7d1"/><path d="M48.007,40.621c1.826-2.617,6.175-1.933,8.32.432s2.754,5.689,3.539,8.782a75.531,75.531,0,0,1,2.016,8.376,33.907,33.907,0,0,1-1.661,14.405c-2.759,9.024-14.65,23.375-15.777,31.023-3.383-2.325-8.063,12.71-12.112,12.035-2.353-.392-4.829-.2-7.046-1.072-3.847-1.52-5.864-5.98-5.8-10.115s1.773-8.046,3.453-11.826l6.856-15.419c4.073-9.163,8.162-18.351,13.294-26.967Z" transform="translate(7.323 14.638)"/><path d="M66.952,28.241c.1-.037,4.825,8.471,5.311,8.4-.011-.019-2.664.607-4.033.759l-.056,2.365c.041-.007-6.285,1.8-6.391,1.456l5.491,2.093c-.5.927-2.618,5.853-3.583,5.433-1.388-.605-9.781-3.087-9.781-3.087L51.416,51.5a3.259,3.259,0,0,1-5.337.985A48.823,48.823,0,0,0,41.18,48c-.011-.008-.007-.022-.008-.036-.074-.556,5.056-9.079,5.111-9.046.019.012,0-.044-.025-.043-2.262.1-5.135-2.631-4.6-4.824a3.821,3.821,0,0,1,5.411-2.273L46.9,23.023q9.155-1.9,18.448-3.026s1.555,8.263,1.606,8.244" transform="translate(15.475 7.516)" fill="#f6a472"/><path d="M110.274,64.543a58.245,58.245,0,0,0-3.2,12.83c-.026,0-16.279-10.007-21.027-16.05a8.688,8.688,0,0,1-1.595-2.62,9.989,9.989,0,0,1-.212-3.449,36.489,36.489,0,0,0-4.879-19.623c-.279-.479-.773-1.026-1.282-.808a23.929,23.929,0,0,0,2.327,9.987A22.13,22.13,0,0,0,76.957,38.2a.952.952,0,0,0-1.087-.34c-.432.169-.46.568-.446.927.056,1.519,3.05,7.6,3.05,7.6l-2.753-4.92a.653.653,0,0,0-.332-.22c-.582-.149-.766.647-.682,1.189.585,3.74,3.067,7.177,2.706,10.944L73.56,50.527a1.056,1.056,0,0,0-1.143-.272,1.068,1.068,0,0,0-.526,1.317c.385,1.157,1.584,1.453,2.384,2.195,1.456,1.347,1.223,3.676.792,5.612s-.889,4.162.311,5.74a8.274,8.274,0,0,0,1.242,1.19c3.1,2.677,4.972,6.45,7.207,9.879,5.3,8.133,12.807,14.539,20.206,20.825,1.343,1.141,2.836,2.342,4.6,2.389,2.3.061,4.126-1.834,5.549-3.639A75.778,75.778,0,0,0,128.05,67.668Z" transform="translate(27 13.071)" fill="#fbc9a4"/><path d="M54.732,38.658c-3.561,3.286-8.1.155-14.876,6.032a32.257,32.257,0,0,0-9.213,14.093c-1.6,4.678-5.823,8.217-6.9,13.043-1.33,5.956-2.519,11.775-5.451,17.128-1.392,2.544-2.123,6.308-3.737,8.719-4,5.973-4.807,12.816-6.288,19.847,2.559-2.521,5.772-5,9.342-4.594,4.112.464,6.775,4.456,10.3,6.623,4.214,2.589,9.492,2.456,14.434,2.243-.881-3.016-.037-6.237.8-9.264a142.024,142.024,0,0,1,5.036-15.741c3.671-9.006,9.2-17.313,11.443-26.776A40.791,40.791,0,0,0,59,48.966c-1.054-3.5-1.441-7.986-4.265-10.308" transform="translate(3.108 14.53)" fill="#7d8acc"/><path d="M43.493,30.1a11.4,11.4,0,0,1,2.428,2.485.259.259,0,0,0,.344.089.251.251,0,0,0,.089-.343,12.165,12.165,0,0,0-2.609-2.665.252.252,0,0,0-.343.091.255.255,0,0,0,.089.343" transform="translate(16.301 11.136)" fill="#844d2f"/><path d="M43.4,31.858l1.588-.8a.252.252,0,0,0,.089-.343.256.256,0,0,0-.343-.089l-1.588.8a.253.253,0,0,0-.089.344.256.256,0,0,0,.343.089" transform="translate(16.17 11.499)" fill="#844d2f"/><path d="M33.991,73.92a140.606,140.606,0,0,0,19.7-12.2c1.862-1.376,2.644-1.4,3.632-3.492,1.248-2.643.841-5.758,1.512-8.6a.294.294,0,0,1,.521-.107A7.431,7.431,0,0,1,60.7,55.748a.077.077,0,0,0,.127.076c1.08-1.053,6.461-6.6,9.255-8.118a.816.816,0,0,1,1.134,1.043c-1.314,3-5.956,7.618-5.857,7.739-.1.063,6.377-4.239,8.873-5.175a.816.816,0,0,1,.973,1.2c-1.533,2.382-8.676,7.042-8.65,7,.158.043,7.953-5.733,8.746-6.161.718-.387.725.689.509,1.476-.933,3.39-8.515,8.2-8.492,8.173l5.755,1.573a1.117,1.117,0,0,1,.607,1.416c-.259.634-6.776.471-7.446.663-.827.237-1.351,1.055-2.12,1.439a9.3,9.3,0,0,1-2.7.422,8.493,8.493,0,0,0-4.02,2.431L42.846,84.009c-2.16,1.941-4.455,3.953-7.291,4.583a2.56,2.56,0,0,1-1.98-.182,2.786,2.786,0,0,1-.945-1.625,20.743,20.743,0,0,1,.255-12.2Z" transform="translate(11.966 17.894)" fill="#f6a472"/><path d="M65.65,51.825q-3.762,2.491-7.576,4.906Q57,57.41,55.921,58.085c-.272.171-.022.6.253.433q3.826-2.392,7.6-4.862,1.063-.7,2.124-1.4c.268-.177.017-.612-.253-.433" transform="translate(20.975 19.463)" fill="#844d2f"/><path d="M54.593,54.371q1.9,3.659,3.5,7.465a.26.26,0,0,0,.308.175.252.252,0,0,0,.175-.308q-1.618-3.863-3.55-7.585c-.15-.286-.582-.033-.433.253" transform="translate(20.508 20.294)" fill="#844d2f"/><path d="M48.788,34.9A6.7,6.7,0,0,0,53.9,40.391a13.269,13.269,0,0,1-4.122-10.882,3.264,3.264,0,0,1,.876-2.193c.993-.87,2.512-.45,3.791-.117a18.745,18.745,0,0,0,11.363-.643,8.847,8.847,0,0,0,4.638-3.491,4.4,4.4,0,0,0-.572-5.424c-1.5-1.285-4.35-.6-4.7,1.34a5.672,5.672,0,0,0-2.08-7.849,6,6,0,0,0-7.8,2.635,7.272,7.272,0,0,1-.986,1.822,3.549,3.549,0,0,1-3.528.652c-1.216-.326-2.343-.956-3.58-1.185a5.7,5.7,0,0,0-6.3,7.774c.206.5.472,1.12.12,1.533a1.6,1.6,0,0,1-.969.374,4.117,4.117,0,0,0-3.126,4.722c.7,3.259,5.059,4.551,6.1,7.72a3.912,3.912,0,0,1,5.938-1.187Z" transform="translate(13.851 3.97)" fill="#f2e7d1"/><g transform="translate(62.434 50.307)" opacity="0.72"><g clip-path="url(#k)"><path d="M52.33,39.429l-6.952-2.865,5.737,5.286Z" transform="translate(-45.378 -36.564)" fill="#844d2f"/></g></g><path d="M45.286,20.384c2.781,2.724,6.035,5.355,10.053,5.742a8.65,8.65,0,0,0,5.3-1.092,5.035,5.035,0,0,0,1.91-1.911,3.011,3.011,0,0,0-.028-2.8A4.307,4.307,0,0,0,58.777,18.1a3.346,3.346,0,0,0-3.5,2.558A1.843,1.843,0,0,0,56.3,22.611a3.761,3.761,0,0,0,2.5.138,3.715,3.715,0,0,0,2.28-1.489,3.828,3.828,0,0,0,.5-2.607,6.712,6.712,0,0,0-1.1-2.694c-.278-.429-.581-.842-.885-1.253a6.734,6.734,0,0,0-.923-1.044,2.1,2.1,0,0,0-2.338-.571,2.438,2.438,0,0,0-1.065,2.344,3.067,3.067,0,0,0,.422,1.332.251.251,0,0,0,.433-.253,2.472,2.472,0,0,1-.087-2.424,1.23,1.23,0,0,1,.85-.666A1.5,1.5,0,0,1,57.9,13.7a6.724,6.724,0,0,1,1.734,1.908A8.59,8.59,0,0,1,60.928,18a3.924,3.924,0,0,1,.034,2.36,2.8,2.8,0,0,1-1.628,1.69,3.982,3.982,0,0,1-2.294.285,1.453,1.453,0,0,1-1.292-1.4,2.36,2.36,0,0,1,1.022-1.761,3.3,3.3,0,0,1,1.9-.581A3.836,3.836,0,0,1,62,20.407a2.526,2.526,0,0,1,.132,2.434,4.476,4.476,0,0,1-1.688,1.724,8.032,8.032,0,0,1-4.7,1.088c-3.573-.2-6.6-2.355-9.141-4.711-.323-.3-.64-.605-.955-.914-.231-.226-.586.128-.355.355" transform="translate(16.993 4.855)" fill="#bcab8e"/><path d="M50.754,21.689a4.179,4.179,0,0,0-4.743-.892,5.955,5.955,0,0,0-2.236,1.486,6.944,6.944,0,0,0-1.49,2.818,23.056,23.056,0,0,0-.393,7c.056,2.226-.01,4.627-1.145,6.612a6.233,6.233,0,0,1-5.51,3.119c-1.325-.036-2.6-.465-3.914-.587a5.618,5.618,0,0,0-2.982.509,6.451,6.451,0,0,0-3.418,4.317,5.477,5.477,0,0,0,.128,2.892c.382,1.182,1.051,2.25,1.362,3.459A7.939,7.939,0,0,1,20,62.281a7.91,7.91,0,0,1-1.6.1c-.322-.012-.322.49,0,.5a8.647,8.647,0,0,0,5.98-2.173,8.442,8.442,0,0,0,2.77-5.8,8.358,8.358,0,0,0-.451-3.286,24.914,24.914,0,0,1-1.328-3.436,5.616,5.616,0,0,1,1.818-5.038,5.372,5.372,0,0,1,2.39-1.31,8.283,8.283,0,0,1,3.521.2,9.073,9.073,0,0,0,3.614.158,6.825,6.825,0,0,0,2.942-1.41,8.35,8.35,0,0,0,2.68-5.9c.208-2.314-.109-4.634.018-6.95.113-2.1.623-4.439,2.343-5.824a4.629,4.629,0,0,1,4.777-.823,3.039,3.039,0,0,1,.93.753c.209.246.561-.11.355-.355" transform="translate(6.824 7.684)" fill="#bcab8e"/><path d="M29.335,38.354a3.212,3.212,0,0,0-2.46,1.688,3.068,3.068,0,0,0,.122,3,3.119,3.119,0,0,0,1.267,1.185c.289.143.543-.289.253-.433a2.6,2.6,0,0,1,.817-4.935c.316-.037.321-.539,0-.5" transform="translate(9.976 14.415)" fill="#bcab8e"/><path d="M39.973,29.606a13.281,13.281,0,0,1,.122,6.934,7.256,7.256,0,0,1-3.76,4.544,5.232,5.232,0,0,1-3.169.465c-.316-.058-.451.425-.133.483a6.394,6.394,0,0,0,5.649-2.04A9.106,9.106,0,0,0,41,33.64a16.721,16.721,0,0,0-.546-4.168.251.251,0,0,0-.483.133" transform="translate(12.348 11.011)" fill="#bcab8e"/><path d="M40.41,34.307a4.822,4.822,0,0,1-1.519,4.558c-.244.213.113.567.354.355a5.331,5.331,0,0,0,1.65-5.047c-.067-.315-.552-.182-.484.133" transform="translate(14.587 12.777)" fill="#bcab8e"/><path d="M41.953,24a5.291,5.291,0,0,0,2.629,3.91.251.251,0,0,0,.253-.433A4.768,4.768,0,0,1,42.456,24a.26.26,0,0,0-.252-.25.251.251,0,0,0-.25.25" transform="translate(15.768 8.926)" fill="#bcab8e"/><path d="M43.428,23.563a3.591,3.591,0,0,0,1.388,2.025.254.254,0,0,0,.344-.089.259.259,0,0,0-.091-.344,3.082,3.082,0,0,1-1.158-1.725.251.251,0,0,0-.483.133" transform="translate(16.32 8.737)" fill="#bcab8e"/><path d="M41.79,19.9a4.988,4.988,0,0,1,2.376-3.767,4.774,4.774,0,0,1,4.4-.235,4.856,4.856,0,0,1,2.02,1.639c.184.263.618.014.433-.253a5.521,5.521,0,0,0-4.395-2.317,5.291,5.291,0,0,0-4.36,2.276,5.352,5.352,0,0,0-.98,2.658c-.025.322.476.319.5,0" transform="translate(15.518 5.625)" fill="#bcab8e"/><path d="M59.946,16.789a2.509,2.509,0,0,1-.239,4.5c-.293.132-.039.564.253.432a3.007,3.007,0,0,0,.239-5.366.251.251,0,0,0-.253.433" transform="translate(22.393 6.134)" fill="#bcab8e"/><path d="M50.75,41.154a5.708,5.708,0,0,1-1.52,4.561c-.222.234.132.589.355.355a6.186,6.186,0,0,0,1.666-4.916c-.036-.316-.537-.321-.5,0" transform="translate(18.477 15.379)" fill="#bcab8e"/><path d="M47.91,17.962a9.45,9.45,0,0,0-10.433,6.86,7.981,7.981,0,0,0-.231,2.284,11.512,11.512,0,0,1,.008,2.709,2.666,2.666,0,0,1-.549,1.205,4.583,4.583,0,0,1-1.04.871,28.248,28.248,0,0,1-2.61,1.49A32.716,32.716,0,0,1,27.5,35.565a22.609,22.609,0,0,0-5.348,2,10.054,10.054,0,0,0-3.518,3.7c-1.973,3.489-2.058,7.591-1.87,11.491.025.523.054,1.047.084,1.57.018.321.52.323.5,0-.22-3.916-.458-8.054,1.176-11.728a10.385,10.385,0,0,1,3.031-4.026,14.753,14.753,0,0,1,5.038-2.228,40.625,40.625,0,0,0,5.479-1.944q1.352-.615,2.642-1.355a9.136,9.136,0,0,0,2.256-1.577c1.288-1.4.711-3.312.772-5.012a7.946,7.946,0,0,1,1.42-4.147,8.97,8.97,0,0,1,7.545-4,6.994,6.994,0,0,1,1.069.125c.315.062.45-.421.133-.483" transform="translate(6.275 6.697)" fill="#f2e7d1"/><path d="M39.587,21.012c-.239-.084-.257-.409-.249-.621a3.062,3.062,0,0,1,.213-.882A6.5,6.5,0,0,1,40.5,17.76a7.536,7.536,0,0,1,3.173-2.409,9.536,9.536,0,0,1,4.734-.546,12.128,12.128,0,0,1,2.338.55,11.92,11.92,0,0,0,2.391.666,3.77,3.77,0,0,0,3.53-1.684,4.156,4.156,0,0,0,.438-3.839,3.416,3.416,0,0,0-2.931-2.182,3.076,3.076,0,0,0-1.84.428,1.888,1.888,0,0,0-1,1.672c.124,1.215,1.577,1.458,2.56,1.328a7.728,7.728,0,0,0,2.036-.634,10.057,10.057,0,0,0,1.98-1.145,10.436,10.436,0,0,0,.865-.713c.238-.217-.117-.571-.355-.354a9.844,9.844,0,0,1-3.773,2.155,3.862,3.862,0,0,1-1.672.2,1.3,1.3,0,0,1-1.091-.655c-.246-.626.323-1.218.83-1.493a2.654,2.654,0,0,1,1.713-.255,2.993,2.993,0,0,1,2.4,2.46,3.681,3.681,0,0,1-1.174,3.431,3.145,3.145,0,0,1-1.657.783,5.142,5.142,0,0,1-2.27-.363,20.4,20.4,0,0,0-2.252-.68,11.54,11.54,0,0,0-2.289-.261,9.365,9.365,0,0,0-4.267.926A8.051,8.051,0,0,0,40,17.608a6.957,6.957,0,0,0-.9,1.681,2.5,2.5,0,0,0-.184,1.67.857.857,0,0,0,.539.537c.305.106.438-.378.133-.484" transform="translate(14.595 3.122)" fill="#f2e7d1"/><path d="M58.232,28.561c0,.925-.471,1.674-1.051,1.674s-1.051-.75-1.051-1.674.471-1.674,1.051-1.674,1.051.75,1.051,1.674" transform="translate(21.097 10.106)"/><path d="M59.828,25.189a4.946,4.946,0,0,1-.233,2,.425.425,0,0,1-.209.29.472.472,0,0,1-.376-.083,5.445,5.445,0,0,0-5.282.129,4.512,4.512,0,0,1,5.941-2.016Z" transform="translate(20.195 9.422)" fill="#f2e7d1"/><path d="M40.372,41.159a41.38,41.38,0,0,1,3.214,8.982,41.81,41.81,0,0,1,1.1,9.436,41.775,41.775,0,0,1-.341,5.389.5.5,0,0,0,.5.5.515.515,0,0,0,.5-.5,42.092,42.092,0,0,0,.113-9.705,43.072,43.072,0,0,0-2.086-9.5,42.544,42.544,0,0,0-2.133-5.1.5.5,0,1,0-.865.506" transform="translate(15.151 15.188)" fill="#212f56"/><path d="M36.923,85.056a14.9,14.9,0,0,1-7.212-.575,11.408,11.408,0,0,1-5.392-3.865,10.477,10.477,0,0,1-1.535-2.862,9.5,9.5,0,0,1-.488-3.482,30.876,30.876,0,0,1,.564-4.154q.376-2.126.792-4.245.832-4.216,1.831-8.4.124-.52.25-1.039c.154-.627-.813-.894-.967-.267q-1.053,4.313-1.929,8.669Q22.4,67,22.014,69.163c-.263,1.464-.552,2.935-.678,4.418a10.535,10.535,0,0,0,1.75,7.021,12.365,12.365,0,0,0,5.534,4.529,15.369,15.369,0,0,0,7.555,1.029c.34-.037.678-.084,1.015-.138a.506.506,0,0,0,.349-.618.514.514,0,0,0-.616-.349" transform="translate(8.001 20.978)" fill="#212f56"/><path d="M37.428,45.916q-.274,8.127-.55,16.253L36.6,70.338c-.011.333-.023.667-.034,1a3.3,3.3,0,0,1-.074.79c-.136.48-.736.663-1.132.881A22.9,22.9,0,0,0,32.6,74.8a23.714,23.714,0,0,0-5.275,5.523.5.5,0,1,0,.865.506,22.618,22.618,0,0,1,4.583-4.9,22.129,22.129,0,0,1,2.737-1.848,8.705,8.705,0,0,0,1.436-.853,2.225,2.225,0,0,0,.621-1.718c.2-5.444.369-10.891.553-16.337l.314-9.251c.022-.645-.981-.645-1,0" transform="translate(10.243 17.077)" fill="#212f56"/><path d="M35.905,65.484A29.207,29.207,0,0,0,30.26,72.2q-.648,1.063-1.2,2.179a.514.514,0,0,0,.179.687.507.507,0,0,0,.687-.18,28.28,28.28,0,0,1,4.916-7q.85-.885,1.773-1.694a.5.5,0,0,0-.709-.71" transform="translate(10.899 24.56)" fill="#212f56"/><path d="M11.727,91.126a15.121,15.121,0,0,1,5.536.285A17.292,17.292,0,0,1,21.9,93.367c2.738,1.6,5.261,3.636,8.279,4.705a11.442,11.442,0,0,0,2.551.587,6.582,6.582,0,0,0,3.129-.308.516.516,0,0,0,.349-.616.5.5,0,0,0-.616-.351,7.288,7.288,0,0,1-4.853-.18A19.154,19.154,0,0,1,26.684,95.2c-2.788-1.718-5.439-3.723-8.639-4.62a15.875,15.875,0,0,0-6.318-.455.519.519,0,0,0-.5.5.5.5,0,0,0,.5.5" transform="translate(4.219 33.825)" fill="#212f56"/><path d="M25.482,118.331q1.079-4.072,2.157-8.142c.355-1.34.7-2.683,1.066-4.022a5.981,5.981,0,0,1,.633-1.618,4.335,4.335,0,0,1,1.171-1.172c1.223-.885,2.518-1.683,3.778-2.516a.512.512,0,0,0,.179-.687.505.505,0,0,0-.685-.179c-1.154.764-2.317,1.515-3.462,2.294a7.233,7.233,0,0,0-1.435,1.2,5.077,5.077,0,0,0-.938,1.717c-.211.621-.359,1.262-.527,1.895q-.279,1.048-.556,2.1-.549,2.076-1.1,4.152-.625,2.357-1.249,4.715a.5.5,0,0,0,.967.267" transform="translate(9.207 37.559)" fill="#472909"/><path d="M18.19,96.015c-1.478,11.279-2.954,22.559-4.239,33.863s-2.377,22.615-3.083,33.963q-.594,9.539-.788,19.1a.5.5,0,0,0,1,0c.215-11.365.919-22.714,1.926-34.035s2.318-22.63,3.734-33.915q1.191-9.491,2.45-18.973c.036-.271-.256-.5-.5-.5a.514.514,0,0,0-.5.5" transform="translate(3.788 35.9)" fill="#472909"/><path d="M6.3,159.162a15.215,15.215,0,0,0,5.14,2.1,37.046,37.046,0,0,0,5.823.154l3.338-.026a.5.5,0,0,0,0-1l-5.765.044a24.226,24.226,0,0,1-2.79-.092,9.571,9.571,0,0,1-2.571-.666,23.717,23.717,0,0,1-2.668-1.376.5.5,0,0,0-.506.867" transform="translate(2.277 59.472)" fill="#472909"/><path d="M28.529,104.834q2.214,7.428,4.43,14.855,2.2,7.39,4.41,14.781,2.214,7.428,4.43,14.855t4.43,14.855q2.214,7.426,4.43,14.854.272.91.543,1.82a.5.5,0,0,0,.967-.266q-2.217-7.428-4.43-14.855-2.2-7.39-4.41-14.782-2.214-7.428-4.43-14.854t-4.43-14.855q-2.217-7.428-4.43-14.855-.272-.91-.543-1.82a.5.5,0,0,0-.967.267" transform="translate(10.714 39.171)" fill="#472909"/><path d="M40.438,161.715a48.793,48.793,0,0,1,12.175-.926q1.738.087,3.464.3a.5.5,0,0,0,.5-.5.514.514,0,0,0-.5-.5,49.345,49.345,0,0,0-12.384.074c-1.18.158-2.355.352-3.522.592a.5.5,0,0,0,.267.967" transform="translate(14.961 60.037)" fill="#472909"/><path d="M97.266,41.258,92.8,34.832a120.968,120.968,0,0,1,17.87-6.365,5.284,5.284,0,0,1,3.255-.158,5.126,5.126,0,0,1,1.926,1.606c.732.865,1.476,2.024,1,3.05a3.047,3.047,0,0,1-1.5,1.253,72.469,72.469,0,0,1-11.674,4.7Z" transform="translate(34.882 10.565)" fill="#601922"/><path d="M89.238,13.73A4.775,4.775,0,0,1,91.4,11.48c2.1-1.081,4.134-2.3,6.29-3.276a15.338,15.338,0,0,1,8.444-1.573c2.871.431,5.651,2.325,6.476,5.107a12.12,12.12,0,0,1,.378,2.489c.648,8.023,1.039,16.125,3.021,23.926a24.4,24.4,0,0,0,1.423,4.656,49.191,49.191,0,0,1-14.178,3.65,37.15,37.15,0,0,0-2.024-7.625C99.789,39.563,94.3,41.6,93.3,40.98a3.928,3.928,0,0,1-1.453-2.631,26.981,26.981,0,0,1-.777-7.772c.127.122-5.34.593-5.34.593-.047.091,4.3-6.23,4.3-6.23-.069-2.922-.726-8.287-.794-11.211" transform="translate(32.223 2.449)" fill="#fbc9a4"/><path d="M116.238,30.933c-7.183.429-14.083,3.36-21.281,3.418a9.908,9.908,0,0,1,1.469,5.809c5.4-2.9,12.31-2.134,18.152-3.993a2.445,2.445,0,0,0,.975-.488,2.23,2.23,0,0,0,.532-1.047,9.073,9.073,0,0,0,.239-3.649Z" transform="translate(35.691 11.627)" fill="#873139"/><path d="M98.616,54.1a11.5,11.5,0,0,1-.248,3.577,192.058,192.058,0,0,1,21.737,4.268A16.111,16.111,0,0,1,120.312,58Q109.38,56.6,98.6,54.241Z" transform="translate(36.973 20.336)" fill="#873139"/><path d="M101.155,45.794l-1.779,9.924-.5,2.789c-.056.315.427.451.483.133l1.779-9.924q.25-1.4.5-2.789c.056-.315-.428-.451-.484-.133" transform="translate(37.163 17.145)" fill="#873139"/><path d="M98.574,47.775Q99.2,50,99.83,52.233a.251.251,0,0,0,.483-.133l-1.255-4.458a.251.251,0,0,0-.484.133" transform="translate(37.047 17.84)" fill="#873139"/><path d="M84.842,53.406c3.608.8,7.35,1.64,10.491,3.679a13.287,13.287,0,0,1,2.4,1.985c.223.234.576-.121.355-.355-2.633-2.768-6.317-4.119-9.937-5.049-1.054-.271-2.115-.509-3.177-.743-.316-.07-.449.414-.133.483" transform="translate(31.822 19.889)" fill="#873139"/><path d="M85.446,55.159a21.852,21.852,0,0,1,8.174,1.5,21.063,21.063,0,0,1,2.174.995c.286.15.539-.282.253-.433A22.386,22.386,0,0,0,87.9,54.766a22.147,22.147,0,0,0-2.453-.11.251.251,0,0,0,0,.5" transform="translate(32.026 20.543)" fill="#873139"/><path d="M74,83.778A106.456,106.456,0,0,0,89.5,86.13a106.483,106.483,0,0,0,15.692.048q4.392-.312,8.745-.987c.318-.05.183-.532-.133-.483a105.821,105.821,0,0,1-15.578,1.233,105.947,105.947,0,0,1-15.509-1.057q-4.326-.617-8.587-1.591c-.315-.072-.449.413-.133.484" transform="translate(27.746 31.305)" fill="#873139"/><path d="M84.829,90.67q5.162,2.38,10.44,4.495,1.474.59,2.955,1.16a.5.5,0,1,0,.267-.967q-5.184-1.992-10.263-4.245-1.451-.644-2.893-1.31a.518.518,0,0,0-.687.18.506.506,0,0,0,.18.687" transform="translate(31.792 33.732)" fill="#212f56"/><path d="M93.092,89.978q2.363,9.149,4.785,18.283,2.435,9.18,4.931,18.34,2.483,9.118,5.026,18.219,2.555,9.145,5.171,18.274,2.6,9.083,5.265,18.15.341,1.156.68,2.31a.5.5,0,0,0,.967-.266q-2.671-9.066-5.281-18.146-2.623-9.126-5.187-18.27-2.549-9.1-5.041-18.214-2.5-9.161-4.945-18.338-2.431-9.13-4.8-18.278l-.6-2.332a.5.5,0,0,0-.967.267" transform="translate(34.983 33.586)" fill="#212f56"/><path d="M106.219,162.1q6.9-1.152,13.68-2.869,1.9-.481,3.793-1.007a.5.5,0,0,0-.267-.967q-6.736,1.872-13.61,3.185-1.928.367-3.863.691a.5.5,0,0,0-.349.616.512.512,0,0,0,.616.351" transform="translate(39.687 59.099)" fill="#212f56"/><path d="M106.214,88.577a31.337,31.337,0,0,0-6.534,1.454.512.512,0,0,0-.369.484,19.194,19.194,0,0,0,1.1,5.648,7.111,7.111,0,0,0,3.426,3.806,5,5,0,0,0,2.838.444.5.5,0,0,0,.349-.616.514.514,0,0,0-.616-.351,3.819,3.819,0,0,1-1.98-.305,5.512,5.512,0,0,1-1.778-1.271,8.528,8.528,0,0,1-1.973-4.421c-.179-.97-.271-1.952-.362-2.933q-.184.241-.369.483a30.129,30.129,0,0,1,6.268-1.419.517.517,0,0,0,.5-.5.5.5,0,0,0-.5-.5" transform="translate(37.327 33.292)" fill="#212f56"/><path d="M80.338,162.179a108.176,108.176,0,0,1,13.723-2.665q1.973-.25,3.953-.428a.516.516,0,0,0,.5-.5.506.506,0,0,0-.5-.5,110.33,110.33,0,0,0-14.078,2.192q-1.94.433-3.865.937a.5.5,0,0,0,.267.967" transform="translate(29.963 59.418)" fill="#7d8acc"/><path d="M78.814,122.649a33.9,33.9,0,0,1,9.665,1.819.5.5,0,0,0,.267-.967,34.915,34.915,0,0,0-9.932-1.855.5.5,0,1,0,0,1" transform="translate(29.435 45.723)" fill="#7d8acc"/><path d="M81.608,126.237a7.054,7.054,0,0,1,5.016-1.2.519.519,0,0,0,.618-.351.505.505,0,0,0-.351-.616,8.076,8.076,0,0,0-5.79,1.3.514.514,0,0,0-.18.687.506.506,0,0,0,.687.18" transform="translate(30.391 46.598)" fill="#7d8acc"/><path d="M82.917,104.156c-.052,4.656-1.54,9.11-2.614,13.595a38.163,38.163,0,0,0-1.106,6.867,32.037,32.037,0,0,0,.582,7.391c.45,2.5,1.077,4.957,1.68,7.42q.914,3.742,1.855,7.478,1.87,7.438,3.835,14.85t4.033,14.8l.516,1.838a.5.5,0,0,0,.969-.267q-2.068-7.347-4.04-14.719Q86.647,156,84.765,148.563c-1.242-4.909-2.541-9.818-3.609-14.767a38.731,38.731,0,0,1-.985-7.415,30.359,30.359,0,0,1,.786-7c.978-4.5,2.518-8.892,2.885-13.506q.07-.856.077-1.718a.5.5,0,0,0-1,0" transform="translate(29.755 38.967)" fill="#7d8acc"/><g transform="translate(133.45 38.861)" opacity="0.64"><g clip-path="url(#l)"><path d="M96.993,30.668l7.855-2.423-6.659,5.043Z" transform="translate(-96.993 -28.245)" fill="#844d2f"/></g></g><path d="M111.731,33.9,106.952,17.3c-.413-1.438-.984-3.056-2.369-3.619-1.618-.658-3.353.49-4.77,1.512-2.544,1.834-5.344,3.491-8.453,3.91s-6.588-.651-8.281-3.291a3.769,3.769,0,0,1-.554-3.335c.586-1.472,2.357-2.087,3.94-2.152s3.2.241,4.736-.157a6.154,6.154,0,0,1-5.007-6.1,2.093,2.093,0,0,1,.488-1.423c.773-.769,2.072-.25,3.013.3l5.574,3.28a4.419,4.419,0,0,1,.316-4.362,3.19,3.19,0,0,1,4.067-.93c1.238.772,1.67,2.406,2.81,3.319,1.248,1,3.039.911,4.6.57a12.708,12.708,0,0,1,4.725-.619c1.578.264,3.108,1.739,2.719,3.291,2.109-.9,4.5,1.121,5,3.361s-.255,4.539-.729,6.783a28.631,28.631,0,0,0-.017,11.736,6.013,6.013,0,0,0,1.479,3.237,2.4,2.4,0,0,0,3.251.182c.66,2.636-2.887,4.791-5.413,3.789s-3.836-3.81-4.366-6.475q-.953,1.9-1.9,3.793Z" transform="translate(30.946 0.203)" fill="#542d0b"/><path d="M90.487,27.732a28.822,28.822,0,0,1,4.364-3.2A.251.251,0,0,0,94.6,24.1a29.435,29.435,0,0,0-4.466,3.279c-.241.216.114.57.355.355" transform="translate(33.848 9.044)" fill="#844d2f"/><path d="M93.656,21.317c0,.925-.471,1.674-1.051,1.674s-1.051-.75-1.051-1.674.471-1.674,1.051-1.674,1.051.75,1.051,1.674" transform="translate(34.412 7.383)"/><path d="M90.5,17.572a7.353,7.353,0,0,0,.4,3.656c1.152-.471,2.232-1.119,3.419-1.493a4.409,4.409,0,0,1,3.612.212,8.785,8.785,0,0,0-7.443-2.314Z" transform="translate(33.988 6.584)" fill="#542d0b"/><path d="M74.862,39.717a40.715,40.715,0,0,1,3.448,9.992q.3,1.471.494,2.961c.041.315.542.319.5,0a41.265,41.265,0,0,0-2.748-10.422q-.582-1.414-1.263-2.783c-.144-.289-.578-.036-.433.253" transform="translate(28.127 14.785)" fill="#844d2f"/><path d="M76.282,38.481a59.467,59.467,0,0,1,2.9,10.832q.264,1.566.442,3.144c.036.318.538.321.5,0A59.709,59.709,0,0,0,77.8,41.378q-.477-1.529-1.036-3.031c-.113-.3-.6-.169-.484.133" transform="translate(28.665 14.35)" fill="#844d2f"/><path d="M76.847,51.314a11.07,11.07,0,0,1,4.95-3.18c.307-.095.176-.579-.133-.484a11.584,11.584,0,0,0-5.172,3.309c-.215.239.139.6.355.355" transform="translate(28.726 17.906)" fill="#844d2f"/><path d="M84.94,37.21A15.978,15.978,0,0,0,81.965,44.2c-.051.316.432.453.484.133a15.642,15.642,0,0,1,2.924-6.874c.194-.259-.242-.509-.433-.253" transform="translate(30.807 13.946)" fill="#844d2f"/><path d="M81.891,30.9q.636,4.445,1.27,8.892.182,1.275.365,2.552c.045.318.528.183.483-.133q-.634-4.445-1.27-8.892l-.363-2.552c-.045-.318-.53-.183-.484.133" transform="translate(30.779 11.496)" fill="#844d2f"/><path d="M80.506,31.131q.708,4.945,1.417,9.888.2,1.4.4,2.8a.252.252,0,0,0,.308.175.256.256,0,0,0,.176-.308q-.71-4.945-1.419-9.888-.2-1.4-.4-2.8a.252.252,0,0,0-.308-.175.256.256,0,0,0-.175.308" transform="translate(30.258 11.583)" fill="#844d2f"/><path d="M79.73,33.816q.524,4.84,1.244,9.657c.048.318.531.183.484-.133q-.71-4.749-1.227-9.524c-.033-.318-.535-.321-.5,0" transform="translate(29.968 12.621)" fill="#844d2f"/><path d="M96.936,65.438A28.158,28.158,0,0,1,100.1,79.561c-.012.322.49.322.5,0a28.812,28.812,0,0,0-1.885-11.38,29.115,29.115,0,0,0-1.351-3c-.15-.286-.582-.033-.433.253" transform="translate(36.424 24.453)" fill="#844d2f"/><path d="M82.959,13.6a2.486,2.486,0,0,1,.235-3.464,4.673,4.673,0,0,1,4.257-.826A17.463,17.463,0,0,1,90.3,10.319c.26.109.451-.341.194-.458-2.671-1.208-6.194-2.935-5.945-6.4A3.057,3.057,0,0,1,86.53.612c1.846-.539,3.62.925,4.912,2.049A58.64,58.64,0,0,1,96.385,7.5c.216.239.571-.116.354-.354A58.186,58.186,0,0,0,92.064,2.54C90.657,1.3,88.891-.241,86.867.032a3.336,3.336,0,0,0-2.739,2.818A5,5,0,0,0,85.209,7a13.178,13.178,0,0,0,5.032,3.3c.063-.153.128-.305.193-.458-1.714-.72-3.533-1.447-5.426-1.1A3.612,3.612,0,0,0,81.884,11.7a2.669,2.669,0,0,0,.721,2.254c.231.226.586-.128.355-.355" transform="translate(30.768 0)" fill="#542d0b"/></g></g></g></g></g></svg>