<svg xmlns="http://www.w3.org/2000/svg" xmlns:xlink="http://www.w3.org/1999/xlink" width="562" height="562" viewBox="0 0 562 562"><defs><clipPath id="a"><rect width="562" height="562" fill="none"/></clipPath><clipPath id="b"><rect width="102.059" height="85.494" transform="translate(231.336 227.041)" fill="#12263f"/></clipPath></defs><g transform="translate(-519 -797)"><g transform="translate(519 797)"><g clip-path="url(#a)"><path d="M562,281c0,155.192-125.808,281-281,281S0,436.192,0,281,125.808,0,281,0,562,125.808,562,281" fill="#12263f"/><line y2="514.733" transform="translate(279.859 27.034)" fill="none" stroke="#fff" stroke-miterlimit="10" stroke-width="3"/><line x2="490.226" transform="translate(47 284.401)" fill="none" stroke="#fff" stroke-miterlimit="10" stroke-width="3"/><path d="M282.365,193.576a76.212,76.212,0,1,1-76.212,76.212,76.212,76.212,0,0,1,76.212-76.212" fill="#ffd357"/></g><g clip-path="url(#b)"><path d="M281.639,232.1c-.868-.532-1.335.133-2.021.6-8.625,5.855-16.992,12.07-25.6,17.96-4.456,3.056-8.916,6.169-13.218,9.475-1.591,1.222-3.274,2.319-4.9,3.5-1.367.984-2.8,1.235-3.923-.178a2.459,2.459,0,0,1,.721-3.827c1.913-1.4,3.86-2.765,5.8-4.142q10.045-7.1,20.1-14.193c5.724-4.046,11.432-8.107,17.177-12.128,4.376-3.065,8.539-2.613,13.089.177,5.055,3.1,9.657,6.781,14.553,10.073q10.6,7.125,20.876,14.746c2.413,1.794,5,3.313,7.38,5.171,1.583,1.229,2.32,2.432,1.178,4.06-1.252,1.793-2.8,1.087-4.246,0-4.836-3.62-9.775-7.124-14.712-10.572-5.964-4.153-11.884-8.376-17.875-12.495-3.068-2.111-6.119-4.248-9.129-6.442a7.135,7.135,0,0,0-5.244-1.772" fill="#12263f"/><path d="M282.075,312.52H241.981a10.6,10.6,0,0,1-2.2-.091,2.608,2.608,0,0,1,.176-5.178,13.51,13.51,0,0,1,1.719-.029h81.418a12.993,12.993,0,0,1,1.72.024,2.618,2.618,0,0,1,.058,5.224,13.045,13.045,0,0,1-2.209.053H282.07" fill="#12263f"/><path d="M270.769,274.156l-.022.017v.019l.03-.036" fill="#12263f"/><path d="M272.081,268.867a16.333,16.333,0,0,0-22.961,14.522c-.11,4.993-.022,9.99-.022,14.985,0,4.041,0,3.94,4.023,4.039,1.849.047,2.389-.5,2.349-2.344-.114-5.239-.063-10.481-.033-15.721a9.97,9.97,0,0,1,13.089-10c.836.229,1.527.447,2.223-.177a5.643,5.643,0,0,1,1.887-2.5c1.773-1.387,1.059-2.05-.555-2.8" fill="#12263f"/><path d="M267.243,263.344a6.385,6.385,0,0,0,6.384-6.186A6.321,6.321,0,0,0,261,256.565c-.006.142-.008.285-.005.427a6.411,6.411,0,0,0,6.251,6.35" fill="#12263f"/><path d="M270.741,274.192h.05c0-.013-.014-.027-.022-.041Z" fill="#12263f"/><path d="M290.019,268.364a15.676,15.676,0,0,0-17.207,4.213c-.575.615-.8,1.8-2.022,1.622.555,1.012-.415,1.609-.738,2.34-1.525,3.452-2.443,6.958-1.17,10.689a10.271,10.271,0,0,0,11.147,6.872,10.649,10.649,0,0,0,8.875-10c.045-1.953-.7-3.4-2.825-3.605-2.091-.2-3.148.994-3.454,2.966a7.063,7.063,0,0,1-.128,1.214,3.94,3.94,0,0,1-4.2,3.054,3.8,3.8,0,0,1-3.683-3.645c-.583-5.7,5.789-11.3,11.419-10.179a10.718,10.718,0,0,1,8.526,8.163c.058,5.331.135,10.661.165,15.992.028,4.663,0,4.606,4.664,4.346,1.254-.069,1.458-.553,1.446-1.633-.069-6.071-.086-12.143-.121-18.213a16,16,0,0,0-10.7-14.207" fill="#12263f"/><path d="M284.186,263.342c3.708.2,6.032-2.083,6.268-6.153.218-3.788-1.989-6.452-5.481-6.639a6.41,6.41,0,0,0-.787,12.792" fill="#12263f"/><path d="M312.982,293.868c0-2.291-.022-4.584.01-6.874.026-1.88-.63-3.323-2.651-3.423-2.237-.109-2.934,1.491-2.952,3.4-.043,4.583.036,9.167-.035,13.751-.022,1.437.528,1.912,1.87,1.783a9.894,9.894,0,0,1,1.962,0c1.345.139,1.907-.306,1.832-1.766-.117-2.285-.031-4.581-.028-6.874" fill="#12263f"/><path d="M310.3,268.277a5.651,5.651,0,0,0-5.567,5.693,5.577,5.577,0,0,0,5.54,5.611h.092a5.468,5.468,0,0,0,5.253-5.666,5.524,5.524,0,0,0-5.311-5.632" fill="#12263f"/></g><text transform="translate(135.304 83.903) rotate(-35.01)" fill="#fff" font-size="23" font-family="Roboto-Bold, Roboto" font-weight="700"><tspan x="0" y="0">E</tspan></text><text transform="matrix(0.849, -0.528, 0.528, 0.849, 145.65, 76.619)" fill="#fff" font-size="23" font-family="Roboto-Bold, Roboto" font-weight="700"><tspan x="0" y="0">X</tspan></text><text transform="translate(156.416 69.948) rotate(-29.564)" fill="#fff" font-size="23" font-family="Roboto-Bold, Roboto" font-weight="700"><tspan x="0" y="0">-</tspan></text><text transform="translate(163.919 65.594) rotate(-26.762)" fill="#fff" font-size="23" font-family="Roboto-Bold, Roboto" font-weight="700"><tspan x="0" y="0">A</tspan></text><text transform="translate(177.438 58.751) rotate(-23.113)" fill="#fff" font-size="23" font-family="Roboto-Bold, Roboto" font-weight="700"><tspan x="0" y="0">N</tspan></text><text transform="translate(192.107 52.512) rotate(-19.597)" fill="#fff" font-size="23" font-family="Roboto-Bold, Roboto" font-weight="700"><tspan x="0" y="0">T</tspan></text><text transform="translate(205.277 47.836) rotate(-16.455)" fill="#fff" font-size="23" font-family="Roboto-Bold, Roboto" font-weight="700"><tspan x="0" y="0">E</tspan></text><text transform="translate(217.486 44.285) rotate(-14.133)" fill="#fff" font-size="29" font-family="Roboto-Bold, Roboto" font-weight="700"><tspan x="0" y="0"> </tspan></text><text transform="translate(224.371 42.55) rotate(-12.461)" fill="#fff" font-size="29" font-family="Roboto-Bold, Roboto" font-weight="700"><tspan x="0" y="0"> </tspan></text><text transform="translate(231.262 41.024) rotate(-10.801)" fill="#fff" font-size="29" font-family="Roboto-Bold, Roboto" font-weight="700"><tspan x="0" y="0"> </tspan></text><text transform="translate(238.226 39.694) rotate(-9.138)" fill="#fff" font-size="29" font-family="Roboto-Bold, Roboto" font-weight="700"><tspan x="0" y="0"> </tspan></text><text transform="matrix(0.991, -0.13, 0.13, 0.991, 245.211, 38.567)" fill="#fff" font-size="29" font-family="Roboto-Bold, Roboto" font-weight="700"><tspan x="0" y="0"> </tspan></text><text transform="matrix(0.995, -0.102, 0.102, 0.995, 252.213, 37.647)" fill="#fff" font-size="29" font-family="Roboto-Bold, Roboto" font-weight="700"><tspan x="0" y="0"> </tspan></text><text transform="translate(259.277 36.924) rotate(-4.181)" fill="#fff" font-size="29" font-family="Roboto-Bold, Roboto" font-weight="700"><tspan x="0" y="0"> </tspan></text><text transform="translate(266.328 36.405) rotate(-2.545)" fill="#fff" font-size="29" font-family="Roboto-Bold, Roboto" font-weight="700"><tspan x="0" y="0"> </tspan></text><text transform="matrix(1, -0.016, 0.016, 1, 273.408, 36.091)" fill="#fff" font-size="29" font-family="Roboto-Bold, Roboto" font-weight="700"><tspan x="0" y="0"> </tspan></text><text transform="matrix(1, 0.016, -0.016, 1, 280.457, 35.96)" fill="#fff" font-size="29" font-family="Roboto-Bold, Roboto" font-weight="700"><tspan x="0" y="0"> </tspan></text><text transform="matrix(0.999, 0.041, -0.041, 0.999, 287.549, 36.06)" fill="#fff" font-size="29" font-family="Roboto-Bold, Roboto" font-weight="700"><tspan x="0" y="0"> </tspan></text><text transform="translate(294.643 36.348) rotate(3.978)" fill="#fff" font-size="29" font-family="Roboto-Bold, Roboto" font-weight="700"><tspan x="0" y="0"> </tspan></text><text transform="translate(301.684 36.834) rotate(5.618)" fill="#fff" font-size="29" font-family="Roboto-Bold, Roboto" font-weight="700"><tspan x="0" y="0"> </tspan></text><text transform="translate(308.742 37.526) rotate(7.273)" fill="#fff" font-size="29" font-family="Roboto-Bold, Roboto" font-weight="700"><tspan x="0" y="0"> </tspan></text><text transform="translate(315.742 38.417) rotate(8.924)" fill="#fff" font-size="29" font-family="Roboto-Bold, Roboto" font-weight="700"><tspan x="0" y="0"> </tspan></text><text transform="translate(322.686 39.417) rotate(11.464)" fill="#fff" font-size="23" font-family="Roboto-Bold, Roboto" font-weight="700"><tspan x="0" y="0">P</tspan></text><text transform="matrix(0.968, 0.252, -0.252, 0.968, 336.96, 42.338)" fill="#fff" font-size="23" font-family="Roboto-Bold, Roboto" font-weight="700"><tspan x="0" y="0">L</tspan></text><text transform="matrix(0.952, 0.307, -0.307, 0.952, 348.959, 45.421)" fill="#fff" font-size="23" font-family="Roboto-Bold, Roboto" font-weight="700"><tspan x="0" y="0">A</tspan></text><text transform="translate(363.391 50.055) rotate(21.548)" fill="#fff" font-size="23" font-family="Roboto-Bold, Roboto" font-weight="700"><tspan x="0" y="0">N</tspan></text><text transform="matrix(0.913, 0.408, -0.408, 0.913, 378.235, 56.034)" fill="#fff" font-size="23" font-family="Roboto-Bold, Roboto" font-weight="700"><tspan x="0" y="0"> </tspan></text><text transform="translate(383.32 58.197) rotate(26.458)" fill="#fff" font-size="23" font-family="Roboto-Bold, Roboto" font-weight="700"><tspan x="0" y="0">D</tspan></text><text transform="translate(396.446 64.753) rotate(29.661)" fill="#fff" font-size="23" font-family="Roboto-Bold, Roboto" font-weight="700"><tspan x="0" y="0">E</tspan></text><text transform="matrix(0.85, 0.527, -0.527, 0.85, 407.496, 71.119)" fill="#fff" font-size="23" font-family="Roboto-Bold, Roboto" font-weight="700"><tspan x="0" y="0"> </tspan></text><text transform="translate(412.252 73.942) rotate(34.23)" fill="#fff" font-size="23" font-family="Roboto-Bold, Roboto" font-weight="700"><tspan x="0" y="0">A</tspan></text><text transform="matrix(0.791, 0.612, -0.612, 0.791, 424.803, 82.479)" fill="#fff" font-size="23" font-family="Roboto-Bold, Roboto" font-weight="700"><tspan x="0" y="0">C</tspan></text><text transform="matrix(0.752, 0.659, -0.659, 0.752, 436.473, 91.475)" fill="#fff" font-size="23" font-family="Roboto-Bold, Roboto" font-weight="700"><tspan x="0" y="0">O</tspan></text><text transform="translate(448.214 101.652) rotate(45.347)" fill="#fff" font-size="23" font-family="Roboto-Bold, Roboto" font-weight="700"><tspan x="0" y="0">M</tspan></text><text transform="matrix(0.652, 0.759, -0.759, 0.652, 462.083, 115.803)" fill="#fff" font-size="23" font-family="Roboto-Bold, Roboto" font-weight="700"><tspan x="0" y="0">P</tspan></text><text transform="matrix(0.611, 0.792, -0.792, 0.611, 470.316, 125.284)" fill="#fff" font-size="23" font-family="Roboto-Bold, Roboto" font-weight="700"><tspan x="0" y="0">A</tspan></text><text transform="translate(479.612 137.29) rotate(55.958)" fill="#fff" font-size="23" font-family="Roboto-Bold, Roboto" font-weight="700"><tspan x="0" y="0">Ñ</tspan></text><text transform="matrix(0.506, 0.862, -0.862, 0.506, 488.533, 150.498)" fill="#fff" font-size="23" font-family="Roboto-Bold, Roboto" font-weight="700"><tspan x="0" y="0">A</tspan></text><text transform="translate(496.276 163.501) rotate(63.684)" fill="#fff" font-size="23" font-family="Roboto-Bold, Roboto" font-weight="700"><tspan x="0" y="0">M</tspan></text><text transform="translate(504.922 181.375) rotate(66.772)" fill="#fff" font-size="23" font-family="Roboto-Bold, Roboto" font-weight="700"><tspan x="0" y="0">I</tspan></text><text transform="matrix(0.358, 0.934, -0.934, 0.358, 507.556, 187.347)" fill="#fff" font-size="23" font-family="Roboto-Bold, Roboto" font-weight="700"><tspan x="0" y="0">E</tspan></text><text transform="matrix(0.302, 0.953, -0.953, 0.302, 512.129, 199.125)" fill="#fff" font-size="23" font-family="Roboto-Bold, Roboto" font-weight="700"><tspan x="0" y="0">N</tspan></text><text transform="translate(516.93 214.339) rotate(75.929)" fill="#fff" font-size="23" font-family="Roboto-Bold, Roboto" font-weight="700"><tspan x="0" y="0">T</tspan></text><text transform="translate(520.279 227.523) rotate(79.322)" fill="#fff" font-size="23" font-family="Roboto-Bold, Roboto" font-weight="700"><tspan x="0" y="0">O</tspan></text><text transform="matrix(0.142, 0.99, -0.99, 0.142, 523.08, 242.949)" fill="#fff" font-size="23" font-family="Roboto-Bold, Roboto" font-weight="700"><tspan x="0" y="0"> </tspan></text><text transform="translate(523.878 248.488) rotate(83.117)" fill="#fff" font-size="23" font-family="Roboto-Bold, Roboto" font-weight="700"><tspan x="0" y="0"> </tspan></text><text transform="matrix(0.097, 0.995, -0.995, 0.097, 524.553, 254.064)" fill="#fff" font-size="23" font-family="Roboto-Bold, Roboto" font-weight="700"><tspan x="0" y="0"> </tspan></text><text transform="translate(525.1 259.658) rotate(85.734)" fill="#fff" font-size="23" font-family="Roboto-Bold, Roboto" font-weight="700"><tspan x="0" y="0"> </tspan></text><text transform="translate(525.517 265.239) rotate(87.03)" fill="#fff" font-size="23" font-family="Roboto-Bold, Roboto" font-weight="700"><tspan x="0" y="0"> </tspan></text><text transform="translate(525.811 270.878) rotate(88.333)" fill="#fff" font-size="23" font-family="Roboto-Bold, Roboto" font-weight="700"><tspan x="0" y="0"> </tspan></text><text transform="matrix(0.016, 1, -1, 0.016, 525.948, 276.454)" fill="#fff" font-size="23" font-family="Roboto-Bold, Roboto" font-weight="700"><tspan x="0" y="0"> </tspan></text><text transform="matrix(-0.016, 1, -1, -0.016, 526.016, 282.068)" fill="#fff" font-size="23" font-family="Roboto-Bold, Roboto" font-weight="700"><tspan x="0" y="0"> </tspan></text><text transform="translate(525.925 287.708) rotate(92.199)" fill="#fff" font-size="23" font-family="Roboto-Bold, Roboto" font-weight="700"><tspan x="0" y="0"> </tspan></text><text transform="translate(525.713 293.316) rotate(93.496)" fill="#fff" font-size="23" font-family="Roboto-Bold, Roboto" font-weight="700"><tspan x="0" y="0"> </tspan></text><text transform="translate(525.372 298.914) rotate(94.798)" fill="#fff" font-size="23" font-family="Roboto-Bold, Roboto" font-weight="700"><tspan x="0" y="0"> </tspan></text><text transform="matrix(-0.106, 0.994, -0.994, -0.106, 524.903, 304.504)" fill="#fff" font-size="23" font-family="Roboto-Bold, Roboto" font-weight="700"><tspan x="0" y="0"> </tspan></text><text transform="translate(524.31 310.081) rotate(97.414)" fill="#fff" font-size="23" font-family="Roboto-Bold, Roboto" font-weight="700"><tspan x="0" y="0"> </tspan></text><text transform="translate(523.583 315.669) rotate(98.732)" fill="#fff" font-size="23" font-family="Roboto-Bold, Roboto" font-weight="700"><tspan x="0" y="0"> </tspan></text><text transform="translate(522.733 321.217) rotate(100.049)" fill="#fff" font-size="23" font-family="Roboto-Bold, Roboto" font-weight="700"><tspan x="0" y="0"> </tspan></text><text transform="translate(521.758 326.727) rotate(101.363)" fill="#fff" font-size="23" font-family="Roboto-Bold, Roboto" font-weight="700"><tspan x="0" y="0"> </tspan></text><text transform="translate(520.768 332.169) rotate(103.759)" fill="#fff" font-size="23" font-family="Roboto-Bold, Roboto" font-weight="700"><tspan x="0" y="0">V</tspan></text><text transform="translate(517.162 346.532) rotate(106.266)" fill="#fff" font-size="23" font-family="Roboto-Bold, Roboto" font-weight="700"><tspan x="0" y="0">I</tspan></text><text transform="translate(515.42 352.794) rotate(108.674)" fill="#fff" font-size="23" font-family="Roboto-Bold, Roboto" font-weight="700"><tspan x="0" y="0">S</tspan></text><text transform="translate(510.891 365.965) rotate(111.08)" fill="#fff" font-size="23" font-family="Roboto-Bold, Roboto" font-weight="700"><tspan x="0" y="0">I</tspan></text><text transform="translate(508.628 372.067) rotate(113.497)" fill="#fff" font-size="23" font-family="Roboto-Bold, Roboto" font-weight="700"><tspan x="0" y="0">T</tspan></text><text transform="matrix(-0.448, 0.894, -0.894, -0.448, 503.647, 383.674)" fill="#fff" font-size="23" font-family="Roboto-Bold, Roboto" font-weight="700"><tspan x="0" y="0">A</tspan></text><text transform="translate(496.846 397.23) rotate(120.008)" fill="#fff" font-size="23" font-family="Roboto-Bold, Roboto" font-weight="700"><tspan x="0" y="0">S</tspan></text><text transform="matrix(-0.534, 0.845, -0.845, -0.534, 489.799, 409.269)" fill="#fff" font-size="23" font-family="Roboto-Bold, Roboto" font-weight="700"><tspan x="0" y="0"> </tspan></text><text transform="matrix(-0.567, 0.823, -0.823, -0.567, 486.919, 413.993)" fill="#fff" font-size="23" font-family="Roboto-Bold, Roboto" font-weight="700"><tspan x="0" y="0">Y</tspan></text><text transform="translate(478.906 425.48) rotate(126.845)" fill="#fff" font-size="23" font-family="Roboto-Bold, Roboto" font-weight="700"><tspan x="0" y="0"> </tspan></text><text transform="matrix(-0.629, 0.777, -0.777, -0.629, 475.634, 429.962)" fill="#fff" font-size="23" font-family="Roboto-Bold, Roboto" font-weight="700"><tspan x="0" y="0">E</tspan></text><text transform="matrix(-0.673, 0.74, -0.74, -0.673, 467.724, 439.828)" fill="#fff" font-size="23" font-family="Roboto-Bold, Roboto" font-weight="700"><tspan x="0" y="0">N</tspan></text><text transform="matrix(-0.718, 0.696, -0.696, -0.718, 456.991, 451.611)" fill="#fff" font-size="23" font-family="Roboto-Bold, Roboto" font-weight="700"><tspan x="0" y="0">C</tspan></text><text transform="translate(446.413 461.891) rotate(139.303)" fill="#fff" font-size="23" font-family="Roboto-Bold, Roboto" font-weight="700"><tspan x="0" y="0">U</tspan></text><text transform="translate(435.122 471.571) rotate(142.507)" fill="#fff" font-size="23" font-family="Roboto-Bold, Roboto" font-weight="700"><tspan x="0" y="0">E</tspan></text><text transform="translate(425.121 479.313) rotate(145.839)" fill="#fff" font-size="23" font-family="Roboto-Bold, Roboto" font-weight="700"><tspan x="0" y="0">N</tspan></text><text transform="matrix(-0.86, 0.51, -0.51, -0.86, 411.924, 488.245)" fill="#fff" font-size="23" font-family="Roboto-Bold, Roboto" font-weight="700"><tspan x="0" y="0">T</tspan></text><text transform="translate(399.92 495.38) rotate(152.65)" fill="#fff" font-size="23" font-family="Roboto-Bold, Roboto" font-weight="700"><tspan x="0" y="0">R</tspan></text><text transform="translate(387.177 502.003) rotate(156.164)" fill="#fff" font-size="23" font-family="Roboto-Bold, Roboto" font-weight="700"><tspan x="0" y="0">O</tspan></text><text transform="matrix(-0.931, 0.364, -0.364, -0.931, 372.806, 508.237)" fill="#fff" font-size="23" font-family="Roboto-Bold, Roboto" font-weight="700"><tspan x="0" y="0"> </tspan></text><text transform="translate(367.578 510.281) rotate(159.978)" fill="#fff" font-size="23" font-family="Roboto-Bold, Roboto" font-weight="700"><tspan x="0" y="0"> </tspan></text><text transform="translate(362.314 512.202) rotate(161.298)" fill="#fff" font-size="23" font-family="Roboto-Bold, Roboto" font-weight="700"><tspan x="0" y="0"> </tspan></text><text transform="translate(356.994 514.004) rotate(162.623)" fill="#fff" font-size="23" font-family="Roboto-Bold, Roboto" font-weight="700"><tspan x="0" y="0"> </tspan></text><text transform="translate(351.64 515.681) rotate(163.945)" fill="#fff" font-size="23" font-family="Roboto-Bold, Roboto" font-weight="700"><tspan x="0" y="0"> </tspan></text><text transform="matrix(-0.967, 0.254, -0.254, -0.967, 346.236, 517.238)" fill="#fff" font-size="23" font-family="Roboto-Bold, Roboto" font-weight="700"><tspan x="0" y="0"> </tspan></text><text transform="matrix(-0.973, 0.232, -0.232, -0.973, 340.827, 518.661)" fill="#fff" font-size="23" font-family="Roboto-Bold, Roboto" font-weight="700"><tspan x="0" y="0"> </tspan></text><text transform="matrix(-0.978, 0.209, -0.209, -0.978, 335.368, 519.964)" fill="#fff" font-size="23" font-family="Roboto-Bold, Roboto" font-weight="700"><tspan x="0" y="0"> </tspan></text><text transform="translate(329.863 521.143) rotate(169.232)" fill="#fff" font-size="23" font-family="Roboto-Bold, Roboto" font-weight="700"><tspan x="0" y="0"> </tspan></text><text transform="translate(324.362 522.191) rotate(170.547)" fill="#fff" font-size="23" font-family="Roboto-Bold, Roboto" font-weight="700"><tspan x="0" y="0"> </tspan></text><text transform="matrix(-0.99, 0.142, -0.142, -0.99, 318.814, 523.117)" fill="#fff" font-size="23" font-family="Roboto-Bold, Roboto" font-weight="700"><tspan x="0" y="0"> </tspan></text><text transform="translate(313.274 523.909) rotate(173.173)" fill="#fff" font-size="23" font-family="Roboto-Bold, Roboto" font-weight="700"><tspan x="0" y="0"> </tspan></text><text transform="translate(307.694 524.581) rotate(174.484)" fill="#fff" font-size="23" font-family="Roboto-Bold, Roboto" font-weight="700"><tspan x="0" y="0"> </tspan></text><text transform="translate(302.098 525.12) rotate(175.79)" fill="#fff" font-size="23" font-family="Roboto-Bold, Roboto" font-weight="700"><tspan x="0" y="0"> </tspan></text><text transform="matrix(-0.999, 0.051, -0.051, -0.999, 296.516, 525.534)" fill="#fff" font-size="23" font-family="Roboto-Bold, Roboto" font-weight="700"><tspan x="0" y="0"> </tspan></text><text transform="translate(290.901 525.82) rotate(178.384)" fill="#fff" font-size="23" font-family="Roboto-Bold, Roboto" font-weight="700"><tspan x="0" y="0"> </tspan></text><text transform="translate(285.25 525.95) rotate(179.071)" fill="#fff" font-size="23" font-family="Roboto-Bold, Roboto" font-weight="700"><tspan x="0" y="0"> </tspan></text><text transform="translate(279.685 526.013) rotate(-179.042)" fill="#fff" font-size="23" font-family="Roboto-Bold, Roboto" font-weight="700"><tspan x="0" y="0"> </tspan></text><text transform="matrix(-0.999, -0.039, 0.039, -0.999, 274.048, 525.921)" fill="#fff" font-size="23" font-family="Roboto-Bold, Roboto" font-weight="700"><tspan x="0" y="0"> </tspan></text><text transform="translate(268.441 525.7) rotate(-176.447)" fill="#fff" font-size="23" font-family="Roboto-Bold, Roboto" font-weight="700"><tspan x="0" y="0"> </tspan></text><text transform="translate(262.843 525.354) rotate(-175.145)" fill="#fff" font-size="23" font-family="Roboto-Bold, Roboto" font-weight="700"><tspan x="0" y="0"> </tspan></text><text transform="translate(257.255 524.882) rotate(-173.839)" fill="#fff" font-size="23" font-family="Roboto-Bold, Roboto" font-weight="700"><tspan x="0" y="0"> </tspan></text><text transform="translate(251.678 524.28) rotate(-172.53)" fill="#fff" font-size="23" font-family="Roboto-Bold, Roboto" font-weight="700"><tspan x="0" y="0"> </tspan></text><text transform="matrix(-0.988, -0.153, 0.153, -0.988, 246.091, 523.549)" fill="#fff" font-size="23" font-family="Roboto-Bold, Roboto" font-weight="700"><tspan x="0" y="0"> </tspan></text><text transform="translate(240.544 522.692) rotate(-169.895)" fill="#fff" font-size="23" font-family="Roboto-Bold, Roboto" font-weight="700"><tspan x="0" y="0"> </tspan></text><text transform="translate(235.039 521.711) rotate(-168.581)" fill="#fff" font-size="23" font-family="Roboto-Bold, Roboto" font-weight="700"><tspan x="0" y="0"> </tspan></text><text transform="translate(229.53 520.602) rotate(-167.259)" fill="#fff" font-size="23" font-family="Roboto-Bold, Roboto" font-weight="700"><tspan x="0" y="0"> </tspan></text><text transform="translate(224.064 519.366) rotate(-165.94)" fill="#fff" font-size="23" font-family="Roboto-Bold, Roboto" font-weight="700"><tspan x="0" y="0"> </tspan></text><text transform="matrix(-0.96, -0.279, 0.279, -0.96, 218.666, 518.089)" fill="#fff" font-size="23" font-family="Roboto-Bold, Roboto" font-weight="700"><tspan x="0" y="0">E</tspan></text><text transform="translate(206.496 514.581) rotate(-160.602)" fill="#fff" font-size="23" font-family="Roboto-Bold, Roboto" font-weight="700"><tspan x="0" y="0">X</tspan></text><text transform="translate(194.569 510.363) rotate(-158.293)" fill="#fff" font-size="23" font-family="Roboto-Bold, Roboto" font-weight="700"><tspan x="0" y="0">-</tspan></text><text transform="translate(186.46 507.216) rotate(-155.551)" fill="#fff" font-size="23" font-family="Roboto-Bold, Roboto" font-weight="700"><tspan x="0" y="0">P</tspan></text><text transform="translate(173.229 501.23) rotate(-152.02)" fill="#fff" font-size="23" font-family="Roboto-Bold, Roboto" font-weight="700"><tspan x="0" y="0">O</tspan></text><text transform="translate(159.478 493.906) rotate(-148.576)" fill="#fff" font-size="23" font-family="Roboto-Bold, Roboto" font-weight="700"><tspan x="0" y="0">S</tspan></text><text transform="translate(147.626 486.673) rotate(-145.323)" fill="#fff" font-size="23" font-family="Roboto-Bold, Roboto" font-weight="700"><tspan x="0" y="0">T</tspan></text><text transform="translate(136.669 479.015) rotate(-143.198)" fill="#fff" font-size="23" font-family="Roboto-Bold, Roboto" font-weight="700"><tspan x="0" y="0"> </tspan></text><text transform="translate(132.174 475.655) rotate(-141.891)" fill="#fff" font-size="23" font-family="Roboto-Bold, Roboto" font-weight="700"><tspan x="0" y="0"> </tspan></text><text transform="matrix(-0.773, -0.635, 0.635, -0.773, 127.76, 472.193)" fill="#fff" font-size="23" font-family="Roboto-Bold, Roboto" font-weight="700"><tspan x="0" y="0"> </tspan></text><text transform="translate(123.428 468.635) rotate(-139.282)" fill="#fff" font-size="23" font-family="Roboto-Bold, Roboto" font-weight="700"><tspan x="0" y="0"> </tspan></text><text transform="translate(119.178 464.978) rotate(-137.978)" fill="#fff" font-size="23" font-family="Roboto-Bold, Roboto" font-weight="700"><tspan x="0" y="0"> </tspan></text><text transform="translate(114.998 461.212) rotate(-136.67)" fill="#fff" font-size="23" font-family="Roboto-Bold, Roboto" font-weight="700"><tspan x="0" y="0"> </tspan></text><text transform="translate(110.904 457.353) rotate(-135.363)" fill="#fff" font-size="23" font-family="Roboto-Bold, Roboto" font-weight="700"><tspan x="0" y="0"> </tspan></text><text transform="matrix(-0.695, -0.719, 0.719, -0.695, 106.916, 453.419)" fill="#fff" font-size="23" font-family="Roboto-Bold, Roboto" font-weight="700"><tspan x="0" y="0"> </tspan></text><text transform="matrix(-0.679, -0.734, 0.734, -0.679, 103.019, 449.392)" fill="#fff" font-size="23" font-family="Roboto-Bold, Roboto" font-weight="700"><tspan x="0" y="0"> </tspan></text><text transform="translate(99.198 445.262) rotate(-131.45)" fill="#fff" font-size="23" font-family="Roboto-Bold, Roboto" font-weight="700"><tspan x="0" y="0"> </tspan></text><text transform="translate(95.484 441.07) rotate(-130.034)" fill="#fff" font-size="23" font-family="Roboto-Bold, Roboto" font-weight="700"><tspan x="0" y="0">I</tspan></text><text transform="translate(91.23 436.183) rotate(-127.418)" fill="#fff" font-size="23" font-family="Roboto-Bold, Roboto" font-weight="700"><tspan x="0" y="0">N</tspan></text><text transform="matrix(-0.558, -0.83, 0.83, -0.558, 81.558, 423.504)" fill="#fff" font-size="23" font-family="Roboto-Bold, Roboto" font-weight="700"><tspan x="0" y="0">S</tspan></text><text transform="translate(73.817 412.02) rotate(-120.7)" fill="#fff" font-size="23" font-family="Roboto-Bold, Roboto" font-weight="700"><tspan x="0" y="0">T</tspan></text><text transform="translate(66.688 400.041) rotate(-117.383)" fill="#fff" font-size="23" font-family="Roboto-Bold, Roboto" font-weight="700"><tspan x="0" y="0">R</tspan></text><text transform="translate(60.049 387.257) rotate(-113.945)" fill="#fff" font-size="23" font-family="Roboto-Bold, Roboto" font-weight="700"><tspan x="0" y="0">U</tspan></text><text transform="matrix(-0.34, -0.94, 0.94, -0.34, 53.956, 373.788)" fill="#fff" font-size="23" font-family="Roboto-Bold, Roboto" font-weight="700"><tspan x="0" y="0">M</tspan></text><text transform="translate(47.317 355.106) rotate(-106.055)" fill="#fff" font-size="23" font-family="Roboto-Bold, Roboto" font-weight="700"><tspan x="0" y="0">E</tspan></text><text transform="matrix(-0.22, -0.976, 0.976, -0.22, 43.767, 342.976)" fill="#fff" font-size="23" font-family="Roboto-Bold, Roboto" font-weight="700"><tspan x="0" y="0">N</tspan></text><text transform="translate(40.287 327.423) rotate(-99.183)" fill="#fff" font-size="23" font-family="Roboto-Bold, Roboto" font-weight="700"><tspan x="0" y="0">T</tspan></text><text transform="matrix(-0.101, -0.995, 0.995, -0.101, 38.07, 313.974)" fill="#fff" font-size="23" font-family="Roboto-Bold, Roboto" font-weight="700"><tspan x="0" y="0">O</tspan></text><text transform="translate(36.512 298.467) rotate(-92.392)" fill="#fff" font-size="23" font-family="Roboto-Bold, Roboto" font-weight="700"><tspan x="0" y="0">S</tspan></text><text transform="matrix(-0.016, -1, 1, -0.016, 36.047, 284.508)" fill="#fff" font-size="23" font-family="Roboto-Bold, Roboto" font-weight="700"><tspan x="0" y="0"> </tspan></text><text transform="translate(35.897 279.016) rotate(-87.84)" fill="#fff" font-size="23" font-family="Roboto-Bold, Roboto" font-weight="700"><tspan x="0" y="0">P</tspan></text><text transform="matrix(0.095, -0.995, 0.995, 0.095, 36.448, 264.461)" fill="#fff" font-size="23" font-family="Roboto-Bold, Roboto" font-weight="700"><tspan x="0" y="0">S</tspan></text><text transform="matrix(0.136, -0.991, 0.991, 0.136, 37.844, 250.607)" fill="#fff" font-size="23" font-family="Roboto-Bold, Roboto" font-weight="700"><tspan x="0" y="0">I</tspan></text><text transform="translate(38.635 244.161) rotate(-79.664)" fill="#fff" font-size="23" font-family="Roboto-Bold, Roboto" font-weight="700"><tspan x="0" y="0">C</tspan></text><text transform="translate(41.256 229.662) rotate(-76.102)" fill="#fff" font-size="23" font-family="Roboto-Bold, Roboto" font-weight="700"><tspan x="0" y="0">O</tspan></text><text transform="translate(44.898 214.563) rotate(-71.941)" fill="#fff" font-size="23" font-family="Roboto-Bold, Roboto" font-weight="700"><tspan x="0" y="0">M</tspan></text><text transform="translate(51.145 195.756) rotate(-68.122)" fill="#fff" font-size="23" font-family="Roboto-Bold, Roboto" font-weight="700"><tspan x="0" y="0">É</tspan></text><text transform="matrix(0.423, -0.906, 0.906, 0.423, 55.848, 183.98)" fill="#fff" font-size="23" font-family="Roboto-Bold, Roboto" font-weight="700"><tspan x="0" y="0">T</tspan></text><text transform="translate(61.724 171.351) rotate(-61.667)" fill="#fff" font-size="23" font-family="Roboto-Bold, Roboto" font-weight="700"><tspan x="0" y="0">R</tspan></text><text transform="matrix(0.512, -0.859, 0.859, 0.512, 68.658, 158.66)" fill="#fff" font-size="23" font-family="Roboto-Bold, Roboto" font-weight="700"><tspan x="0" y="0">I</tspan></text><text transform="translate(71.9 153.032) rotate(-56.722)" fill="#fff" font-size="23" font-family="Roboto-Bold, Roboto" font-weight="700"><tspan x="0" y="0">C</tspan></text><text transform="matrix(0.599, -0.801, 0.801, 0.599, 79.97, 140.696)" fill="#fff" font-size="23" font-family="Roboto-Bold, Roboto" font-weight="700"><tspan x="0" y="0">O</tspan></text><text transform="translate(89.324 128.227) rotate(-49.763)" fill="#fff" font-size="23" font-family="Roboto-Bold, Roboto" font-weight="700"><tspan x="0" y="0">S</tspan></text><text transform="matrix(0.676, -0.737, 0.737, 0.676, 98.393, 117.633)" fill="#fff" font-size="23" font-family="Roboto-Bold, Roboto" font-weight="700"><tspan x="0" y="0"> </tspan></text><text transform="translate(102.178 113.5) rotate(-46.195)" fill="#fff" font-size="23" font-family="Roboto-Bold, Roboto" font-weight="700"><tspan x="0" y="0"> </tspan></text><text transform="translate(106.071 109.44) rotate(-44.888)" fill="#fff" font-size="23" font-family="Roboto-Bold, Roboto" font-weight="700"><tspan x="0" y="0"> </tspan></text><text transform="translate(110.056 105.468) rotate(-43.58)" fill="#fff" font-size="23" font-family="Roboto-Bold, Roboto" font-weight="700"><tspan x="0" y="0"> </tspan></text><text transform="translate(87.948 193.367)" fill="#fff" font-size="20" font-family="Roboto-Bold, Roboto" font-weight="700"><tspan x="0" y="0">DIAGNOSTICO</tspan></text><text transform="translate(303.208 187.367)" fill="#fff" font-size="20" font-family="Roboto-Bold, Roboto" font-weight="700"><tspan x="0" y="0">ACOM</tspan><tspan y="0" letter-spacing="-0.086em">P</tspan><tspan y="0">AÑAMIEN</tspan><tspan y="0" letter-spacing="-0.014em">T</tspan><tspan y="0">O</tspan></text><text transform="translate(349.308 211.367)" fill="#fff" font-size="20" font-family="Roboto-Bold, Roboto" font-weight="700"><tspan x="0" y="0">A MEDIDA</tspan></text><text transform="translate(92.528 393.367)" fill="#fff" font-size="20" font-family="Roboto-Bold, Roboto" font-weight="700"><tspan x="0" y="0">RESU</tspan><tspan y="0" letter-spacing="-0.1em">L</tspan><tspan y="0" letter-spacing="-0.058em">T</tspan><tspan y="0">ADOS</tspan></text><text transform="translate(309.188 387.367)" fill="#fff" font-size="20" font-family="Roboto-Bold, Roboto" font-weight="700"><tspan x="0" y="0">IMPLEMEN</tspan><tspan y="0" letter-spacing="-0.06em">T</tspan><tspan y="0">ACIÓN</tspan></text></g></g></svg>