<svg xmlns="http://www.w3.org/2000/svg" width="92" height="92" viewBox="0 0 92 92"><g transform="translate(-177 -1552)"><g transform="translate(-446 -6370)"><circle cx="46" cy="46" r="46" transform="translate(623 7922)" fill="#1cf290"/><g transform="translate(-169.544 -240.055)"><path d="M747.316,84.712h-23.6c-2.713,0-4.163-1.455-4.173-4.165,0-1.246.3-2.629-.141-3.7-.429-1.042-1.631-1.766-2.493-2.629-.978-.979-1.968-1.946-2.932-2.939a3.616,3.616,0,0,1,.006-5.3q2.447-2.5,4.953-4.946a1.877,1.877,0,0,0,.622-1.48q-.026-23.283-.013-46.567c0-2.109,1.177-3.744,2.983-3.966a30.106,30.106,0,0,1,3.413-.078c1.212-.009,1.212,0,1.212-1.185,0-.869-.007-1.737,0-2.605A3.633,3.633,0,0,1,731,1.34q11.476-.01,22.952,0h24.58c2.71,0,4.147,1.449,4.148,4.179q0,7.164,0,14.328a3.214,3.214,0,0,0,.251,1.254,23.734,23.734,0,0,1,.022,18.511,3.406,3.406,0,0,0-.274,1.331c.012,2.741-.015,5.482.01,8.223a21.481,21.481,0,0,1-6.742,16.254,2.632,2.632,0,0,0-.883,2.115c.046,4.341.023,8.684.02,13.026,0,2.729-1.431,4.152-4.163,4.152h-23.6m-5.38-28.239c-.112.182-.267.37.07.488q5.9.013,11.791.023c1.706,0,3.413-.027,5.119-.042,4.172.008,8.345.08,12.515,0a8.74,8.74,0,0,0,6.075-2.732c2.7-2.677,2.958-6.03,2.667-9.666a26.259,26.259,0,0,1-8.427,7.308c.759.093,1.483.063,2.2.1a1.086,1.086,0,0,1,1.116,1.152,1.127,1.127,0,0,1-1.04,1.236,4.557,4.557,0,0,1-.81.031q-10.123,0-20.246,0c-.3,0-.592.029-.888.045q-3.843-.022-7.686-.041a2.283,2.283,0,0,0-2.458,2.1m23.095,18.39-.012,0a24.154,24.154,0,0,1-11.1,2.273c-7.483-.07-14.967-.046-22.45,0a4.241,4.241,0,0,1-3.939-1.927l-.4-1.158-2.245,2.36a5.108,5.108,0,0,1-1.63,1.163c-.408.183-1.04-.067-1.216.415a4.437,4.437,0,0,0-.046,1.444c0,.134.02.268.031.4q0,.24,0,.48c-.1,1.555.266,1.958,1.8,1.958h47.113c1.33,0,1.7-.36,1.7-1.671q.005-5.535,0-11.069c0-.192.111-.429-.173-.623a28.1,28.1,0,0,1-7.2,5.856l-.231.1M730.047,53.415q-4.257,4.232-8.514,8.464-2.846,2.835-5.679,5.683c-.789.794-.785,1.358,0,2.151.666.669,1.353,1.318,2.03,1.976.984,1,1.962,2.014,2.954,3.01.846.85,1.432.849,2.278,0q2.763-2.754,5.518-5.516c.765-.763,1.142-.8,2.065-.256a1.342,1.342,0,0,1-.308,1.943,2.119,2.119,0,0,0-.819,1.969c.067,1.51.321,1.823,1.8,1.823q10.73,0,21.46,0a9.344,9.344,0,0,0,9.7-9.656,34.892,34.892,0,0,1,.116-5.192c.059-.378-.131-.391-.405-.388-1.651.017-3.3.028-4.954.041l-15.768-.039c-.16,0-.378-.035-.44.13a7.964,7.964,0,0,1-1.79,2.484h4.819c2.3,0,4.607-.009,6.91.008a1.161,1.161,0,0,1,1.279,1.171,1.219,1.219,0,0,1-1.216,1.258c-.242.022-.487.006-.731.007l-12.273.038a1.9,1.9,0,0,0-2.11.765,10.736,10.736,0,0,1-1.075,1.091c-.738.72-1.072.762-1.991.26-.5-.95-.467-1.251.279-2,1.489-1.5,2.986-2.988,4.477-4.485.2-.2.486-.353.131-.7q-3.32-3.287-6.606-6.607c-.263-.266-.441-.232-.653.028-.153.187-.322.361-.484.541M775.032,3.809a1.088,1.088,0,0,0-.16-.024q-21.926,0-43.852,0c-.994,0-1.419.441-1.422,1.453-.007,3.092,0,6.185,0,9.277,0,1.069-.239,1.367-1.279,1.656a1.374,1.374,0,0,1-1.171-1.587c.04-.839-.019-1.683.019-2.523.023-.514-.1-.726-.664-.694-.865.049-1.736.012-2.6.013-1.6,0-1.91.3-1.91,1.881V57.775c.343-.043.459-.28.622-.441,1.329-1.318,2.632-2.664,3.983-3.959a1.768,1.768,0,0,0,.574-1.422q-.024-15.467-.011-30.934c0-1.095.191-1.358,1.163-1.648,1.025.221,1.278.555,1.278,1.717q0,14.159,0,28.319v.965c1.441-1.091,3.066-1.223,4.583-1.67a2.195,2.195,0,0,0,1.1-.457c1.211-1.243,2.462-2.447,3.667-3.7a2.781,2.781,0,0,0,.531-3.234c-.146-.349-.322-.686-.478-1.031a23.883,23.883,0,0,1-1.626-14.848c.265-1.323.723-2.589,1.131-3.936-.753,0-1.429,0-2.105,0-1.289-.008-1.686-.407-1.688-1.719q-.006-3.336,0-6.673c0-1.258.406-1.661,1.652-1.662,3.01,0,6.02-.011,9.03.009a2.138,2.138,0,0,0,1.333-.444A23.632,23.632,0,0,1,765.44,6.853a24.8,24.8,0,0,1,9.264,3.932,26.661,26.661,0,0,1,5.532,5.53c0-3.928.01-7.6-.008-11.28a1.179,1.179,0,0,0-1.3-1.247c-1.3-.014-2.6.012-3.9.021m7.327,26.531a19.353,19.353,0,0,0-.319-3.639A21.522,21.522,0,0,0,761.772,8.86a20.508,20.508,0,0,0-12.164,3.165,21.083,21.083,0,0,0-10.191,16.284,21.258,21.258,0,0,0,2.162,11.762,5.238,5.238,0,0,1-1.126,6.473q-1.312,1.336-2.65,2.645c-.274.266-.391.443-.047.771.982.936,1.937,1.9,2.88,2.875.3.312.5.3.787-.009.75-.784,1.528-1.541,2.3-2.308,2.194-2.19,4.422-2.506,7.153-1.064a20.873,20.873,0,0,0,13.555,2.151,21.517,21.517,0,0,0,17.933-21.264M761.7,73.459a1.167,1.167,0,0,0,.3.013,4.63,4.63,0,0,0,.535-.187,18.061,18.061,0,0,0,5.711-3.653c2.348-2.288,4.655-4.619,6.953-6.958a15.607,15.607,0,0,0,1.536-1.888,17.207,17.207,0,0,0,2.4-4.7c-.236.186-.345.265-.445.353a11.241,11.241,0,0,1-6.9,2.914c-1.756.1-3.52.051-5.281.073-1.146.014-1.545.421-1.553,1.583-.012,1.707.053,3.419-.039,5.122a11.346,11.346,0,0,1-3.227,7.323M743.365,13.888c-1.989,0-3.8.007-5.62-.006-.377,0-.611.043-.6.515.023,1.382.008,2.765.01,4.148,0,.25,0,.512.357.51a9.054,9.054,0,0,0,2.1-.062c.433-.109.526-.776.8-1.173.387-.556.74-1.136,1.148-1.675.548-.726,1.134-1.423,1.8-2.256m-4.192,43.364a8.05,8.05,0,0,1,.277-1.029,1.225,1.225,0,0,0-.382-1.549c-1.152-1.066-2.235-2.207-3.345-3.319-.211-.211-.4-.465-.755-.342a9,9,0,0,0-1.571.463l5.776,5.775m6.732-5.332h4.12a2.789,2.789,0,0,0-4.12,0" transform="translate(89.725 8165.03)" fill="#030303"/><path d="M760.314,21.223c1.04-.289,1.278-.587,1.279-1.656,0-3.092,0-6.185,0-9.277,0-1.012.427-1.453,1.422-1.453q21.926,0,43.852,0a1.049,1.049,0,0,1,.161.024q0,3.029,0,6.059c0,.34.088.721-.327.917a24.8,24.8,0,0,0-9.264-3.932,23.633,23.633,0,0,0-18.71,4.158,2.134,2.134,0,0,1-1.333.444c-3.01-.021-6.02-.012-9.03-.009-1.246,0-1.649.4-1.652,1.662q-.008,3.336,0,6.673c0,1.312.4,1.712,1.688,1.719.676,0,1.352,0,2.1,0-.408,1.346-.866,2.612-1.131,3.936A23.884,23.884,0,0,0,771,45.338c.156.346.331.682.478,1.031a2.78,2.78,0,0,1-.531,3.234c-1.2,1.249-2.456,2.454-3.667,3.7a2.2,2.2,0,0,1-1.1.457c-1.518.448-3.143.58-4.583,1.67V54.46q0-14.159,0-28.319c0-1.162-.253-1.5-1.278-1.717q0-1.6,0-3.2" transform="translate(57.726 8159.978)" fill="#f1f9fc"/><path d="M833.415,45.824a21.517,21.517,0,0,1-17.934,21.264,20.87,20.87,0,0,1-13.555-2.151c-2.732-1.441-4.959-1.126-7.153,1.064-.768.767-1.547,1.523-2.3,2.308-.291.3-.485.321-.787.009-.943-.975-1.9-1.939-2.88-2.875-.344-.328-.227-.5.047-.771q1.341-1.305,2.65-2.645a5.237,5.237,0,0,0,1.126-6.473,21.608,21.608,0,0,1,8.03-28.045,20.506,20.506,0,0,1,12.163-3.165A21.521,21.521,0,0,1,833.1,42.185a19.348,19.348,0,0,1,.319,3.639m-4.421,4.659a11.343,11.343,0,0,0,.524-3.372c1.008-.221,1.28-.552,1.291-1.542a15.659,15.659,0,0,0-.411-3.627A18.917,18.917,0,1,0,814.866,64.52c7.187-1.22,12.092-5.388,14.793-12.148.374-.935.2-1.35-.666-1.889" transform="translate(38.67 8149.547)" fill="#1e559b"/><path d="M747.243,36.878q0,1.6,0,3.2c-.973.29-1.164.553-1.164,1.648q0,15.467.011,30.934a1.768,1.768,0,0,1-.575,1.422c-1.351,1.295-2.654,2.64-3.983,3.959-.162.161-.279.4-.622.441V33.969c0-1.58.305-1.88,1.91-1.881.868,0,1.738.036,2.6-.013.562-.031.687.18.664.694-.038.839.021,1.683-.019,2.523a1.374,1.374,0,0,0,1.171,1.586" transform="translate(70.798 8144.323)" fill="#cceaf8"/><path d="M774.206,184.489l12.273-.039c.244,0,.489.015.731-.007a1.218,1.218,0,0,0,1.216-1.258,1.161,1.161,0,0,0-1.279-1.172c-2.3-.017-4.607-.008-6.91-.008h-4.819a7.962,7.962,0,0,0,1.79-2.484c.062-.165.28-.13.44-.13l15.768.039c-.062,1.322.037,2.639-.139,3.968a10.456,10.456,0,0,1-10.072,9.187c-5.391.152-10.79.035-16.185.029-.166,0-.381.105-.58-.269a6.88,6.88,0,0,0,.663-.526q3.286-3.271,6.557-6.557c.223-.224.53-.4.546-.774" transform="translate(53.6 8045.07)" fill="#f1f9fc"/><path d="M784.229,214.285a28.088,28.088,0,0,0,7.2-5.856c.284.193.173.43.174.623q.012,5.535,0,11.069c0,1.311-.371,1.671-1.7,1.671H742.79c-1.536,0-1.905-.4-1.8-1.958q15.168,0,30.335,0,1.78,0,3.561-.117a12.074,12.074,0,0,0,8.324-4c.343-.367.839-.7.777-1.329l.013,0a.181.181,0,0,0,.231-.1" transform="translate(70.758 8025.505)" fill="#a8e3f8"/><path d="M772.675,184.49c-.016.375-.323.55-.547.774q-3.271,3.285-6.557,6.557a6.871,6.871,0,0,1-.663.526c.2.374.413.269.58.269,5.4.007,10.794.124,16.185-.029a10.456,10.456,0,0,0,10.072-9.187c.176-1.329.078-2.647.139-3.968q2.477-.02,4.954-.041c.274,0,.464.011.405.388a34.885,34.885,0,0,0-.117,5.192,9.344,9.344,0,0,1-9.7,9.656q-10.73.01-21.46,0c-1.477,0-1.731-.313-1.8-1.823a2.119,2.119,0,0,1,.819-1.969,1.341,1.341,0,0,0,.308-1.943l2.2-2.288c.919.5,1.253.46,1.991-.26a10.734,10.734,0,0,0,1.075-1.091,1.9,1.9,0,0,1,2.11-.765" transform="translate(55.131 8045.069)" fill="#e1f3fa"/><path d="M743.371,172.631l-2.2,2.288c-.923-.548-1.3-.508-2.066.255q-2.762,2.754-5.517,5.516c-.846.843-1.432.844-2.278,0-.992-1-1.97-2.006-2.954-3.01a.794.794,0,0,0,.551-.307c4.007-4.009,8.036-8,12.012-12.036a3.946,3.946,0,0,0-.4-5.931c.162-.18.331-.354.485-.541.212-.26.39-.294.654-.029q3.29,3.317,6.606,6.607c.355.351.066.507-.13.7-1.49,1.5-2.988,2.987-4.477,4.485-.746.751-.781,1.052-.279,2" transform="translate(79.26 8059.044)" fill="#ed8a36"/><path d="M784.015,226.68c.062.628-.434.962-.777,1.329a12.074,12.074,0,0,1-8.324,4c-1.19.077-2.375.116-3.561.116q-15.168.015-30.335,0c0-.16,0-.32,0-.48a2.59,2.59,0,0,0,1.554-.606,51.553,51.553,0,0,0,3.956-4.019,4.241,4.241,0,0,0,3.938,1.927c7.483-.045,14.967-.069,22.45,0a24.151,24.151,0,0,0,11.1-2.273" transform="translate(70.729 8013.208)" fill="#cae9f7"/><path d="M862.643,186.526a11.345,11.345,0,0,0,3.227-7.323c.093-1.7.027-3.414.039-5.122.008-1.163.408-1.569,1.553-1.583,1.76-.023,3.525.026,5.281-.074a11.24,11.24,0,0,0,6.9-2.914c.1-.088.21-.167.445-.353a17.194,17.194,0,0,1-2.4,4.7,15.574,15.574,0,0,1-1.536,1.889c-2.3,2.339-4.605,4.67-6.953,6.958a18.059,18.059,0,0,1-5.711,3.653,4.488,4.488,0,0,1-.535.187,1.165,1.165,0,0,1-.3-.013" transform="translate(-11.216 8051.964)" fill="#eff7fa"/><path d="M735.1,160.958a3.946,3.946,0,0,1,.4,5.931c-3.976,4.039-8.005,8.027-12.012,12.036a.794.794,0,0,1-.551.307c-.677-.658-1.364-1.307-2.03-1.976-.789-.792-.792-1.356,0-2.151q2.831-2.85,5.679-5.683,4.253-4.236,8.514-8.464" transform="translate(84.676 8057.487)" fill="#ef9a4d"/><path d="M833.151,143.633c.3-.016.593-.045.889-.045q10.123,0,20.246,0a4.526,4.526,0,0,0,.81-.031,1.127,1.127,0,0,0,1.04-1.236,1.086,1.086,0,0,0-1.116-1.152c-.72-.039-1.443-.008-2.2-.1a26.253,26.253,0,0,0,8.427-7.308c.291,3.637.03,6.989-2.667,9.666a8.741,8.741,0,0,1-6.075,2.732c-4.17.083-8.343.01-12.515,0,.018-.386-.039-.709-.535-.726a16.243,16.243,0,0,1-4.338-.862c-.681-.216-1.477-.276-1.963-.936" transform="translate(8.654 8075.814)" fill="#e1f3fa"/><path d="M902.5,15.839c.415-.2.326-.577.327-.917q0-3.029,0-6.059c1.3-.009,2.6-.036,3.9-.021a1.179,1.179,0,0,1,1.3,1.247c.018,3.676.008,7.353.008,11.28a26.662,26.662,0,0,0-5.533-5.53" transform="translate(-38.068 8159.976)" fill="#e1f3fa"/><path d="M812.2,163.943c.485.66,1.282.72,1.962.936a16.245,16.245,0,0,0,4.339.862c.5.018.553.34.535.726-1.706.015-3.412.042-5.119.042q-5.9,0-11.79-.023l-.07-.488a2.283,2.283,0,0,1,2.458-2.1q3.843.014,7.686.041" transform="translate(29.6 8055.504)" fill="#f1f9fc"/><path d="M793.592,39.8c-.669.834-1.255,1.531-1.8,2.256-.408.54-.76,1.12-1.148,1.675-.277.4-.371,1.064-.8,1.173a9.053,9.053,0,0,1-2.1.063c-.359,0-.357-.26-.357-.51,0-1.383.014-2.766-.009-4.148-.008-.472.225-.517.6-.515,1.815.012,3.631.005,5.62.005" transform="translate(39.498 8139.123)" fill="#6ac18d"/><path d="M781.668,159.767l-5.776-5.775a9.031,9.031,0,0,1,1.571-.464c.356-.123.545.131.755.342,1.109,1.112,2.193,2.253,3.345,3.319a1.225,1.225,0,0,1,.382,1.549,8.039,8.039,0,0,0-.278,1.029" transform="translate(47.231 8062.515)" fill="#ef9a4d"/><path d="M746.383,225.347a51.572,51.572,0,0,1-3.956,4.02,2.593,2.593,0,0,1-1.554.606c-.011-.134-.031-.268-.031-.4a4.43,4.43,0,0,1,.046-1.444c.176-.482.808-.232,1.216-.415a5.111,5.111,0,0,0,1.63-1.163l2.245-2.36.4,1.158" transform="translate(70.871 8014.887)" fill="#a8e3f8"/><path d="M814.229,154.5a2.789,2.789,0,0,1,4.12,0Z" transform="translate(21.402 8062.45)" fill="#b5c1c6"/><path d="M801.783,170.33q.035.244.07.488c-.337-.117-.182-.306-.07-.488" transform="translate(29.878 8051.174)" fill="#b5c1c6"/><path d="M873.079,226.377a.181.181,0,0,1-.231.1l.231-.1" transform="translate(-18.092 8013.413)" fill="#cae9f7"/><path d="M838.017,55.881c.862.539,1.039.954.666,1.889-2.7,6.76-7.606,10.928-14.793,12.148A18.9,18.9,0,1,1,839.422,47.34a15.672,15.672,0,0,1,.411,3.627c-.011.99-.284,1.322-1.292,1.542a1.417,1.417,0,0,1-1.167-1.587,16.021,16.021,0,0,0-2.388-8.2c-.127-.207-.173-.556-.56-.455a26.165,26.165,0,0,1-3.221.157c-2.356-.012-4.712-.032-7.068-.034q-8.209-.008-16.417,0c-.336,0-.669-.076-.907.334a15.7,15.7,0,0,0-2.278,7.192c-.03.117.019.147.126.115.3.009.594.025.891.025q11.285,0,22.569,0c1.3,0,2.6-.019,3.894-.029l.888.032a1.233,1.233,0,0,1,1.336,1.208,1.27,1.27,0,0,1-1.338,1.23c-.457.024-.915.024-1.373.036-.3-.01-.594-.03-.892-.03q-12.232,0-24.465,0c-1.813,0-1.794,0-1.473,1.817.106.6.318.815.98.813,7.234-.031,14.468-.018,21.7-.021,1.11,0,2.22-.019,3.33-.029l1.053.031a1.229,1.229,0,1,1,0,2.439c-.838.024-1.677.023-2.515.033-.3-.009-.594-.027-.892-.027q-10.361,0-20.723,0c-2.091,0-2.067-.013-1.055,1.855a1.28,1.28,0,0,0,1.315.771c5.986-.028,11.973-.015,17.959-.02a2.809,2.809,0,0,1,1.265.206,1.319,1.319,0,0,1,.341,1.533,1.408,1.408,0,0,1-1.489.713c-.588-.013-1.177.012-1.765.021H809a14.651,14.651,0,0,0,4.109,3.082A15,15,0,0,0,823.2,67.559a16.16,16.16,0,0,0,13.2-10.688,1.333,1.333,0,0,1,1.615-.991m-28.9-16.013h23.563a16.24,16.24,0,0,0-23.563,0" transform="translate(29.646 8144.149)" fill="#010203"/><path d="M847.155,83.1c.589-.008,1.177-.033,1.765-.021a1.408,1.408,0,0,0,1.489-.713,1.319,1.319,0,0,0-.341-1.533,20.743,20.743,0,0,0,2.13-2.784c.839-.01,1.678-.009,2.516-.033a1.229,1.229,0,1,0,0-2.439l-1.053-.031L854.478,73c.458-.011.916-.012,1.373-.036a1.27,1.27,0,0,0,1.338-1.23,1.233,1.233,0,0,0-1.336-1.208l-.887-.032q0-1.277.006-2.554c.747-.2,1.272-.6,1.142-1.46-.125-.822-.743-1.023-1.466-1.04a7.2,7.2,0,0,0-.493-2.548,26.227,26.227,0,0,0,3.221-.157c.388-.1.433.249.56.455a16.017,16.017,0,0,1,2.388,8.2,1.417,1.417,0,0,0,1.167,1.587,11.344,11.344,0,0,1-.524,3.372,1.332,1.332,0,0,0-1.615.991,16.161,16.161,0,0,1-13.2,10.687,15,15,0,0,1-10.094-1.849,19.777,19.777,0,0,0,5.435-.5,14.107,14.107,0,0,0,5.664-2.578" transform="translate(6.696 8123.676)" fill="#80d6f3"/><path d="M837.272,68.219q0,1.277-.006,2.554c-1.3.01-2.6.029-3.894.029q-11.285,0-22.569,0c-.3,0-.594-.016-.891-.025l-.126-.115a15.7,15.7,0,0,1,2.278-7.192c.238-.41.571-.333.907-.334q8.209,0,16.417,0c2.356,0,4.712.023,7.068.035a7.189,7.189,0,0,1,.493,2.547q-5.566.015-11.133.029c-1.436,0-2.872-.009-4.308.007a1.109,1.109,0,0,0-1.193,1.079,1.177,1.177,0,0,0,1.032,1.329,4.854,4.854,0,0,0,.81.029l15.116.027" transform="translate(24.396 8123.397)" fill="#a8e3f8"/><path d="M823.845,44.979a16.241,16.241,0,0,1,23.564,0Z" transform="translate(14.923 8139.037)" fill="#52b26c"/><path d="M836.772,94.168l-.818,2.549c-1.11.01-2.22.029-3.33.029-7.234,0-14.468-.01-21.7.021-.662,0-.874-.21-.98-.813-.321-1.821-.34-1.817,1.473-1.817q12.233,0,24.465,0c.3,0,.594.019.892.03" transform="translate(24.402 8102.507)" fill="#a8e3f8"/><path d="M837.338,109.658a20.791,20.791,0,0,1-2.13,2.784,2.8,2.8,0,0,0-1.265-.206c-5.986.006-11.973-.008-17.959.02a1.28,1.28,0,0,1-1.316-.771c-1.011-1.868-1.035-1.855,1.056-1.855q10.361,0,20.722,0c.3,0,.595.017.892.027" transform="translate(21.557 8092.069)" fill="#a8e3f8"/><path d="M838.67,125.2a14.106,14.106,0,0,1-5.664,2.578,19.776,19.776,0,0,1-5.435.5,14.651,14.651,0,0,1-4.109-3.082Z" transform="translate(15.181 8081.583)" fill="#a8e3f8"/><path d="M809.767,86.214l.126.115c-.107.033-.156,0-.126-.115" transform="translate(24.414 8107.845)" fill="#80d6f3"/><path d="M858.994,73.561l-15.116-.027a4.853,4.853,0,0,1-.81-.029,1.177,1.177,0,0,1-1.032-1.329,1.109,1.109,0,0,1,1.193-1.079c1.436-.016,2.872,0,4.308-.007q5.566-.013,11.133-.029c.723.017,1.342.219,1.466,1.04.13.859-.394,1.26-1.142,1.46" transform="translate(2.674 8118.054)" fill="#030303"/></g></g></g></svg>